<?xml version="1.0" encoding="utf-8" standalone="no"?>
<!DOCTYPE svg PUBLIC "-//W3C//DTD SVG 1.1//EN"
  "http://www.w3.org/Graphics/SVG/1.1/DTD/svg11.dtd">
<!-- Created with matplotlib (https://matplotlib.org/) -->
<svg height="216pt" version="1.1" viewBox="0 0 576 216" width="576pt" xmlns="http://www.w3.org/2000/svg" xmlns:xlink="http://www.w3.org/1999/xlink">
 <metadata>
  <rdf:RDF xmlns:cc="http://creativecommons.org/ns#" xmlns:dc="http://purl.org/dc/elements/1.1/" xmlns:rdf="http://www.w3.org/1999/02/22-rdf-syntax-ns#">
   <cc:Work>
    <dc:type rdf:resource="http://purl.org/dc/dcmitype/StillImage"/>
    <dc:date>2020-12-22T18:27:36.513083</dc:date>
    <dc:format>image/svg+xml</dc:format>
    <dc:creator>
     <cc:Agent>
      <dc:title>Matplotlib v3.3.2, https://matplotlib.org/</dc:title>
     </cc:Agent>
    </dc:creator>
   </cc:Work>
  </rdf:RDF>
 </metadata>
 <defs>
  <style type="text/css">*{stroke-linecap:butt;stroke-linejoin:round;}</style>
 </defs>
 <g id="figure_1">
  <g id="patch_1">
   <path d="M 0 216 
L 576 216 
L 576 0 
L 0 0 
z
" style="fill:#ffffff;"/>
  </g>
  <g id="axes_1">
   <g id="patch_2">
    <path d="M 46.64 174.04 
L 279.92607 174.04 
L 279.92607 21.72 
L 46.64 21.72 
z
" style="fill:#ffffff;"/>
   </g>
   <g id="matplotlib.axis_1">
    <g id="xtick_1">
     <g id="line2d_1">
      <defs>
       <path d="M 0 0 
L 0 3.5 
" id="mb050203742" style="stroke:#000000;stroke-width:0.8;"/>
      </defs>
      <g>
       <use style="stroke:#000000;stroke-width:0.8;" x="55.101708" xlink:href="#mb050203742" y="174.04"/>
      </g>
     </g>
     <g id="text_1">
      <!-- 0 -->
      <g transform="translate(51.920458 188.638438)scale(0.1 -0.1)">
       <defs>
        <path d="M 31.78125 66.40625 
Q 24.171875 66.40625 20.328125 58.90625 
Q 16.5 51.421875 16.5 36.375 
Q 16.5 21.390625 20.328125 13.890625 
Q 24.171875 6.390625 31.78125 6.390625 
Q 39.453125 6.390625 43.28125 13.890625 
Q 47.125 21.390625 47.125 36.375 
Q 47.125 51.421875 43.28125 58.90625 
Q 39.453125 66.40625 31.78125 66.40625 
z
M 31.78125 74.21875 
Q 44.046875 74.21875 50.515625 64.515625 
Q 56.984375 54.828125 56.984375 36.375 
Q 56.984375 17.96875 50.515625 8.265625 
Q 44.046875 -1.421875 31.78125 -1.421875 
Q 19.53125 -1.421875 13.0625 8.265625 
Q 6.59375 17.96875 6.59375 36.375 
Q 6.59375 54.828125 13.0625 64.515625 
Q 19.53125 74.21875 31.78125 74.21875 
z
" id="DejaVuSans-48"/>
       </defs>
       <use xlink:href="#DejaVuSans-48"/>
      </g>
     </g>
    </g>
    <g id="xtick_2">
     <g id="line2d_2">
      <g>
       <use style="stroke:#000000;stroke-width:0.8;" x="97.945798" xlink:href="#mb050203742" y="174.04"/>
      </g>
     </g>
     <g id="text_2">
      <!-- 20 -->
      <g transform="translate(91.583298 188.638438)scale(0.1 -0.1)">
       <defs>
        <path d="M 19.1875 8.296875 
L 53.609375 8.296875 
L 53.609375 0 
L 7.328125 0 
L 7.328125 8.296875 
Q 12.9375 14.109375 22.625 23.890625 
Q 32.328125 33.6875 34.8125 36.53125 
Q 39.546875 41.84375 41.421875 45.53125 
Q 43.3125 49.21875 43.3125 52.78125 
Q 43.3125 58.59375 39.234375 62.25 
Q 35.15625 65.921875 28.609375 65.921875 
Q 23.96875 65.921875 18.8125 64.3125 
Q 13.671875 62.703125 7.8125 59.421875 
L 7.8125 69.390625 
Q 13.765625 71.78125 18.9375 73 
Q 24.125 74.21875 28.421875 74.21875 
Q 39.75 74.21875 46.484375 68.546875 
Q 53.21875 62.890625 53.21875 53.421875 
Q 53.21875 48.921875 51.53125 44.890625 
Q 49.859375 40.875 45.40625 35.40625 
Q 44.1875 33.984375 37.640625 27.21875 
Q 31.109375 20.453125 19.1875 8.296875 
z
" id="DejaVuSans-50"/>
       </defs>
       <use xlink:href="#DejaVuSans-50"/>
       <use x="63.623047" xlink:href="#DejaVuSans-48"/>
      </g>
     </g>
    </g>
    <g id="xtick_3">
     <g id="line2d_3">
      <g>
       <use style="stroke:#000000;stroke-width:0.8;" x="140.789888" xlink:href="#mb050203742" y="174.04"/>
      </g>
     </g>
     <g id="text_3">
      <!-- 40 -->
      <g transform="translate(134.427388 188.638438)scale(0.1 -0.1)">
       <defs>
        <path d="M 37.796875 64.3125 
L 12.890625 25.390625 
L 37.796875 25.390625 
z
M 35.203125 72.90625 
L 47.609375 72.90625 
L 47.609375 25.390625 
L 58.015625 25.390625 
L 58.015625 17.1875 
L 47.609375 17.1875 
L 47.609375 0 
L 37.796875 0 
L 37.796875 17.1875 
L 4.890625 17.1875 
L 4.890625 26.703125 
z
" id="DejaVuSans-52"/>
       </defs>
       <use xlink:href="#DejaVuSans-52"/>
       <use x="63.623047" xlink:href="#DejaVuSans-48"/>
      </g>
     </g>
    </g>
    <g id="xtick_4">
     <g id="line2d_4">
      <g>
       <use style="stroke:#000000;stroke-width:0.8;" x="183.633978" xlink:href="#mb050203742" y="174.04"/>
      </g>
     </g>
     <g id="text_4">
      <!-- 60 -->
      <g transform="translate(177.271478 188.638438)scale(0.1 -0.1)">
       <defs>
        <path d="M 33.015625 40.375 
Q 26.375 40.375 22.484375 35.828125 
Q 18.609375 31.296875 18.609375 23.390625 
Q 18.609375 15.53125 22.484375 10.953125 
Q 26.375 6.390625 33.015625 6.390625 
Q 39.65625 6.390625 43.53125 10.953125 
Q 47.40625 15.53125 47.40625 23.390625 
Q 47.40625 31.296875 43.53125 35.828125 
Q 39.65625 40.375 33.015625 40.375 
z
M 52.59375 71.296875 
L 52.59375 62.3125 
Q 48.875 64.0625 45.09375 64.984375 
Q 41.3125 65.921875 37.59375 65.921875 
Q 27.828125 65.921875 22.671875 59.328125 
Q 17.53125 52.734375 16.796875 39.40625 
Q 19.671875 43.65625 24.015625 45.921875 
Q 28.375 48.1875 33.59375 48.1875 
Q 44.578125 48.1875 50.953125 41.515625 
Q 57.328125 34.859375 57.328125 23.390625 
Q 57.328125 12.15625 50.6875 5.359375 
Q 44.046875 -1.421875 33.015625 -1.421875 
Q 20.359375 -1.421875 13.671875 8.265625 
Q 6.984375 17.96875 6.984375 36.375 
Q 6.984375 53.65625 15.1875 63.9375 
Q 23.390625 74.21875 37.203125 74.21875 
Q 40.921875 74.21875 44.703125 73.484375 
Q 48.484375 72.75 52.59375 71.296875 
z
" id="DejaVuSans-54"/>
       </defs>
       <use xlink:href="#DejaVuSans-54"/>
       <use x="63.623047" xlink:href="#DejaVuSans-48"/>
      </g>
     </g>
    </g>
    <g id="xtick_5">
     <g id="line2d_5">
      <g>
       <use style="stroke:#000000;stroke-width:0.8;" x="226.478068" xlink:href="#mb050203742" y="174.04"/>
      </g>
     </g>
     <g id="text_5">
      <!-- 80 -->
      <g transform="translate(220.115568 188.638438)scale(0.1 -0.1)">
       <defs>
        <path d="M 31.78125 34.625 
Q 24.75 34.625 20.71875 30.859375 
Q 16.703125 27.09375 16.703125 20.515625 
Q 16.703125 13.921875 20.71875 10.15625 
Q 24.75 6.390625 31.78125 6.390625 
Q 38.8125 6.390625 42.859375 10.171875 
Q 46.921875 13.96875 46.921875 20.515625 
Q 46.921875 27.09375 42.890625 30.859375 
Q 38.875 34.625 31.78125 34.625 
z
M 21.921875 38.8125 
Q 15.578125 40.375 12.03125 44.71875 
Q 8.5 49.078125 8.5 55.328125 
Q 8.5 64.0625 14.71875 69.140625 
Q 20.953125 74.21875 31.78125 74.21875 
Q 42.671875 74.21875 48.875 69.140625 
Q 55.078125 64.0625 55.078125 55.328125 
Q 55.078125 49.078125 51.53125 44.71875 
Q 48 40.375 41.703125 38.8125 
Q 48.828125 37.15625 52.796875 32.3125 
Q 56.78125 27.484375 56.78125 20.515625 
Q 56.78125 9.90625 50.3125 4.234375 
Q 43.84375 -1.421875 31.78125 -1.421875 
Q 19.734375 -1.421875 13.25 4.234375 
Q 6.78125 9.90625 6.78125 20.515625 
Q 6.78125 27.484375 10.78125 32.3125 
Q 14.796875 37.15625 21.921875 38.8125 
z
M 18.3125 54.390625 
Q 18.3125 48.734375 21.84375 45.5625 
Q 25.390625 42.390625 31.78125 42.390625 
Q 38.140625 42.390625 41.71875 45.5625 
Q 45.3125 48.734375 45.3125 54.390625 
Q 45.3125 60.0625 41.71875 63.234375 
Q 38.140625 66.40625 31.78125 66.40625 
Q 25.390625 66.40625 21.84375 63.234375 
Q 18.3125 60.0625 18.3125 54.390625 
z
" id="DejaVuSans-56"/>
       </defs>
       <use xlink:href="#DejaVuSans-56"/>
       <use x="63.623047" xlink:href="#DejaVuSans-48"/>
      </g>
     </g>
    </g>
    <g id="xtick_6">
     <g id="line2d_6">
      <g>
       <use style="stroke:#000000;stroke-width:0.8;" x="269.322158" xlink:href="#mb050203742" y="174.04"/>
      </g>
     </g>
     <g id="text_6">
      <!-- 100 -->
      <g transform="translate(259.778408 188.638438)scale(0.1 -0.1)">
       <defs>
        <path d="M 12.40625 8.296875 
L 28.515625 8.296875 
L 28.515625 63.921875 
L 10.984375 60.40625 
L 10.984375 69.390625 
L 28.421875 72.90625 
L 38.28125 72.90625 
L 38.28125 8.296875 
L 54.390625 8.296875 
L 54.390625 0 
L 12.40625 0 
z
" id="DejaVuSans-49"/>
       </defs>
       <use xlink:href="#DejaVuSans-49"/>
       <use x="63.623047" xlink:href="#DejaVuSans-48"/>
       <use x="127.246094" xlink:href="#DejaVuSans-48"/>
      </g>
     </g>
    </g>
    <g id="text_7">
     <!-- Iteration ID -->
     <g transform="translate(135.160379 202.316563)scale(0.1 -0.1)">
      <defs>
       <path d="M 9.8125 72.90625 
L 19.671875 72.90625 
L 19.671875 0 
L 9.8125 0 
z
" id="DejaVuSans-73"/>
       <path d="M 18.3125 70.21875 
L 18.3125 54.6875 
L 36.8125 54.6875 
L 36.8125 47.703125 
L 18.3125 47.703125 
L 18.3125 18.015625 
Q 18.3125 11.328125 20.140625 9.421875 
Q 21.96875 7.515625 27.59375 7.515625 
L 36.8125 7.515625 
L 36.8125 0 
L 27.59375 0 
Q 17.1875 0 13.234375 3.875 
Q 9.28125 7.765625 9.28125 18.015625 
L 9.28125 47.703125 
L 2.6875 47.703125 
L 2.6875 54.6875 
L 9.28125 54.6875 
L 9.28125 70.21875 
z
" id="DejaVuSans-116"/>
       <path d="M 56.203125 29.59375 
L 56.203125 25.203125 
L 14.890625 25.203125 
Q 15.484375 15.921875 20.484375 11.0625 
Q 25.484375 6.203125 34.421875 6.203125 
Q 39.59375 6.203125 44.453125 7.46875 
Q 49.3125 8.734375 54.109375 11.28125 
L 54.109375 2.78125 
Q 49.265625 0.734375 44.1875 -0.34375 
Q 39.109375 -1.421875 33.890625 -1.421875 
Q 20.796875 -1.421875 13.15625 6.1875 
Q 5.515625 13.8125 5.515625 26.8125 
Q 5.515625 40.234375 12.765625 48.109375 
Q 20.015625 56 32.328125 56 
Q 43.359375 56 49.78125 48.890625 
Q 56.203125 41.796875 56.203125 29.59375 
z
M 47.21875 32.234375 
Q 47.125 39.59375 43.09375 43.984375 
Q 39.0625 48.390625 32.421875 48.390625 
Q 24.90625 48.390625 20.390625 44.140625 
Q 15.875 39.890625 15.1875 32.171875 
z
" id="DejaVuSans-101"/>
       <path d="M 41.109375 46.296875 
Q 39.59375 47.171875 37.8125 47.578125 
Q 36.03125 48 33.890625 48 
Q 26.265625 48 22.1875 43.046875 
Q 18.109375 38.09375 18.109375 28.8125 
L 18.109375 0 
L 9.078125 0 
L 9.078125 54.6875 
L 18.109375 54.6875 
L 18.109375 46.1875 
Q 20.953125 51.171875 25.484375 53.578125 
Q 30.03125 56 36.53125 56 
Q 37.453125 56 38.578125 55.875 
Q 39.703125 55.765625 41.0625 55.515625 
z
" id="DejaVuSans-114"/>
       <path d="M 34.28125 27.484375 
Q 23.390625 27.484375 19.1875 25 
Q 14.984375 22.515625 14.984375 16.5 
Q 14.984375 11.71875 18.140625 8.90625 
Q 21.296875 6.109375 26.703125 6.109375 
Q 34.1875 6.109375 38.703125 11.40625 
Q 43.21875 16.703125 43.21875 25.484375 
L 43.21875 27.484375 
z
M 52.203125 31.203125 
L 52.203125 0 
L 43.21875 0 
L 43.21875 8.296875 
Q 40.140625 3.328125 35.546875 0.953125 
Q 30.953125 -1.421875 24.3125 -1.421875 
Q 15.921875 -1.421875 10.953125 3.296875 
Q 6 8.015625 6 15.921875 
Q 6 25.140625 12.171875 29.828125 
Q 18.359375 34.515625 30.609375 34.515625 
L 43.21875 34.515625 
L 43.21875 35.40625 
Q 43.21875 41.609375 39.140625 45 
Q 35.0625 48.390625 27.6875 48.390625 
Q 23 48.390625 18.546875 47.265625 
Q 14.109375 46.140625 10.015625 43.890625 
L 10.015625 52.203125 
Q 14.9375 54.109375 19.578125 55.046875 
Q 24.21875 56 28.609375 56 
Q 40.484375 56 46.34375 49.84375 
Q 52.203125 43.703125 52.203125 31.203125 
z
" id="DejaVuSans-97"/>
       <path d="M 9.421875 54.6875 
L 18.40625 54.6875 
L 18.40625 0 
L 9.421875 0 
z
M 9.421875 75.984375 
L 18.40625 75.984375 
L 18.40625 64.59375 
L 9.421875 64.59375 
z
" id="DejaVuSans-105"/>
       <path d="M 30.609375 48.390625 
Q 23.390625 48.390625 19.1875 42.75 
Q 14.984375 37.109375 14.984375 27.296875 
Q 14.984375 17.484375 19.15625 11.84375 
Q 23.34375 6.203125 30.609375 6.203125 
Q 37.796875 6.203125 41.984375 11.859375 
Q 46.1875 17.53125 46.1875 27.296875 
Q 46.1875 37.015625 41.984375 42.703125 
Q 37.796875 48.390625 30.609375 48.390625 
z
M 30.609375 56 
Q 42.328125 56 49.015625 48.375 
Q 55.71875 40.765625 55.71875 27.296875 
Q 55.71875 13.875 49.015625 6.21875 
Q 42.328125 -1.421875 30.609375 -1.421875 
Q 18.84375 -1.421875 12.171875 6.21875 
Q 5.515625 13.875 5.515625 27.296875 
Q 5.515625 40.765625 12.171875 48.375 
Q 18.84375 56 30.609375 56 
z
" id="DejaVuSans-111"/>
       <path d="M 54.890625 33.015625 
L 54.890625 0 
L 45.90625 0 
L 45.90625 32.71875 
Q 45.90625 40.484375 42.875 44.328125 
Q 39.84375 48.1875 33.796875 48.1875 
Q 26.515625 48.1875 22.3125 43.546875 
Q 18.109375 38.921875 18.109375 30.90625 
L 18.109375 0 
L 9.078125 0 
L 9.078125 54.6875 
L 18.109375 54.6875 
L 18.109375 46.1875 
Q 21.34375 51.125 25.703125 53.5625 
Q 30.078125 56 35.796875 56 
Q 45.21875 56 50.046875 50.171875 
Q 54.890625 44.34375 54.890625 33.015625 
z
" id="DejaVuSans-110"/>
       <path id="DejaVuSans-32"/>
       <path d="M 19.671875 64.796875 
L 19.671875 8.109375 
L 31.59375 8.109375 
Q 46.6875 8.109375 53.6875 14.9375 
Q 60.6875 21.78125 60.6875 36.53125 
Q 60.6875 51.171875 53.6875 57.984375 
Q 46.6875 64.796875 31.59375 64.796875 
z
M 9.8125 72.90625 
L 30.078125 72.90625 
Q 51.265625 72.90625 61.171875 64.09375 
Q 71.09375 55.28125 71.09375 36.53125 
Q 71.09375 17.671875 61.125 8.828125 
Q 51.171875 0 30.078125 0 
L 9.8125 0 
z
" id="DejaVuSans-68"/>
      </defs>
      <use xlink:href="#DejaVuSans-73"/>
      <use x="29.492188" xlink:href="#DejaVuSans-116"/>
      <use x="68.701172" xlink:href="#DejaVuSans-101"/>
      <use x="130.224609" xlink:href="#DejaVuSans-114"/>
      <use x="171.337891" xlink:href="#DejaVuSans-97"/>
      <use x="232.617188" xlink:href="#DejaVuSans-116"/>
      <use x="271.826172" xlink:href="#DejaVuSans-105"/>
      <use x="299.609375" xlink:href="#DejaVuSans-111"/>
      <use x="360.791016" xlink:href="#DejaVuSans-110"/>
      <use x="424.169922" xlink:href="#DejaVuSans-32"/>
      <use x="455.957031" xlink:href="#DejaVuSans-73"/>
      <use x="485.449219" xlink:href="#DejaVuSans-68"/>
     </g>
    </g>
   </g>
   <g id="matplotlib.axis_2">
    <g id="ytick_1">
     <g id="line2d_7">
      <defs>
       <path d="M 0 0 
L -3.5 0 
" id="m99b3d1c078" style="stroke:#000000;stroke-width:0.8;"/>
      </defs>
      <g>
       <use style="stroke:#000000;stroke-width:0.8;" x="46.64" xlink:href="#m99b3d1c078" y="158.236998"/>
      </g>
     </g>
     <g id="text_8">
      <!-- −7 -->
      <g transform="translate(24.897813 162.036217)scale(0.1 -0.1)">
       <defs>
        <path d="M 10.59375 35.5 
L 73.1875 35.5 
L 73.1875 27.203125 
L 10.59375 27.203125 
z
" id="DejaVuSans-8722"/>
        <path d="M 8.203125 72.90625 
L 55.078125 72.90625 
L 55.078125 68.703125 
L 28.609375 0 
L 18.3125 0 
L 43.21875 64.59375 
L 8.203125 64.59375 
z
" id="DejaVuSans-55"/>
       </defs>
       <use xlink:href="#DejaVuSans-8722"/>
       <use x="83.789062" xlink:href="#DejaVuSans-55"/>
      </g>
     </g>
    </g>
    <g id="ytick_2">
     <g id="line2d_8">
      <g>
       <use style="stroke:#000000;stroke-width:0.8;" x="46.64" xlink:href="#m99b3d1c078" y="125.905341"/>
      </g>
     </g>
     <g id="text_9">
      <!-- −6 -->
      <g transform="translate(24.897813 129.704559)scale(0.1 -0.1)">
       <use xlink:href="#DejaVuSans-8722"/>
       <use x="83.789062" xlink:href="#DejaVuSans-54"/>
      </g>
     </g>
    </g>
    <g id="ytick_3">
     <g id="line2d_9">
      <g>
       <use style="stroke:#000000;stroke-width:0.8;" x="46.64" xlink:href="#m99b3d1c078" y="93.573683"/>
      </g>
     </g>
     <g id="text_10">
      <!-- −5 -->
      <g transform="translate(24.897813 97.372902)scale(0.1 -0.1)">
       <defs>
        <path d="M 10.796875 72.90625 
L 49.515625 72.90625 
L 49.515625 64.59375 
L 19.828125 64.59375 
L 19.828125 46.734375 
Q 21.96875 47.46875 24.109375 47.828125 
Q 26.265625 48.1875 28.421875 48.1875 
Q 40.625 48.1875 47.75 41.5 
Q 54.890625 34.8125 54.890625 23.390625 
Q 54.890625 11.625 47.5625 5.09375 
Q 40.234375 -1.421875 26.90625 -1.421875 
Q 22.3125 -1.421875 17.546875 -0.640625 
Q 12.796875 0.140625 7.71875 1.703125 
L 7.71875 11.625 
Q 12.109375 9.234375 16.796875 8.0625 
Q 21.484375 6.890625 26.703125 6.890625 
Q 35.15625 6.890625 40.078125 11.328125 
Q 45.015625 15.765625 45.015625 23.390625 
Q 45.015625 31 40.078125 35.4375 
Q 35.15625 39.890625 26.703125 39.890625 
Q 22.75 39.890625 18.8125 39.015625 
Q 14.890625 38.140625 10.796875 36.28125 
z
" id="DejaVuSans-53"/>
       </defs>
       <use xlink:href="#DejaVuSans-8722"/>
       <use x="83.789062" xlink:href="#DejaVuSans-53"/>
      </g>
     </g>
    </g>
    <g id="ytick_4">
     <g id="line2d_10">
      <g>
       <use style="stroke:#000000;stroke-width:0.8;" x="46.64" xlink:href="#m99b3d1c078" y="61.242026"/>
      </g>
     </g>
     <g id="text_11">
      <!-- −4 -->
      <g transform="translate(24.897813 65.041244)scale(0.1 -0.1)">
       <use xlink:href="#DejaVuSans-8722"/>
       <use x="83.789062" xlink:href="#DejaVuSans-52"/>
      </g>
     </g>
    </g>
    <g id="ytick_5">
     <g id="line2d_11">
      <g>
       <use style="stroke:#000000;stroke-width:0.8;" x="46.64" xlink:href="#m99b3d1c078" y="28.910368"/>
      </g>
     </g>
     <g id="text_12">
      <!-- −3 -->
      <g transform="translate(24.897813 32.709587)scale(0.1 -0.1)">
       <defs>
        <path d="M 40.578125 39.3125 
Q 47.65625 37.796875 51.625 33 
Q 55.609375 28.21875 55.609375 21.1875 
Q 55.609375 10.40625 48.1875 4.484375 
Q 40.765625 -1.421875 27.09375 -1.421875 
Q 22.515625 -1.421875 17.65625 -0.515625 
Q 12.796875 0.390625 7.625 2.203125 
L 7.625 11.71875 
Q 11.71875 9.328125 16.59375 8.109375 
Q 21.484375 6.890625 26.8125 6.890625 
Q 36.078125 6.890625 40.9375 10.546875 
Q 45.796875 14.203125 45.796875 21.1875 
Q 45.796875 27.640625 41.28125 31.265625 
Q 36.765625 34.90625 28.71875 34.90625 
L 20.21875 34.90625 
L 20.21875 43.015625 
L 29.109375 43.015625 
Q 36.375 43.015625 40.234375 45.921875 
Q 44.09375 48.828125 44.09375 54.296875 
Q 44.09375 59.90625 40.109375 62.90625 
Q 36.140625 65.921875 28.71875 65.921875 
Q 24.65625 65.921875 20.015625 65.03125 
Q 15.375 64.15625 9.8125 62.3125 
L 9.8125 71.09375 
Q 15.4375 72.65625 20.34375 73.4375 
Q 25.25 74.21875 29.59375 74.21875 
Q 40.828125 74.21875 47.359375 69.109375 
Q 53.90625 64.015625 53.90625 55.328125 
Q 53.90625 49.265625 50.4375 45.09375 
Q 46.96875 40.921875 40.578125 39.3125 
z
" id="DejaVuSans-51"/>
       </defs>
       <use xlink:href="#DejaVuSans-8722"/>
       <use x="83.789062" xlink:href="#DejaVuSans-51"/>
      </g>
     </g>
    </g>
    <g id="text_13">
     <!-- Log likelihood -->
     <g transform="translate(18.818125 132.209688)rotate(-90)scale(0.1 -0.1)">
      <defs>
       <path d="M 9.8125 72.90625 
L 19.671875 72.90625 
L 19.671875 8.296875 
L 55.171875 8.296875 
L 55.171875 0 
L 9.8125 0 
z
" id="DejaVuSans-76"/>
       <path d="M 45.40625 27.984375 
Q 45.40625 37.75 41.375 43.109375 
Q 37.359375 48.484375 30.078125 48.484375 
Q 22.859375 48.484375 18.828125 43.109375 
Q 14.796875 37.75 14.796875 27.984375 
Q 14.796875 18.265625 18.828125 12.890625 
Q 22.859375 7.515625 30.078125 7.515625 
Q 37.359375 7.515625 41.375 12.890625 
Q 45.40625 18.265625 45.40625 27.984375 
z
M 54.390625 6.78125 
Q 54.390625 -7.171875 48.1875 -13.984375 
Q 42 -20.796875 29.203125 -20.796875 
Q 24.46875 -20.796875 20.265625 -20.09375 
Q 16.0625 -19.390625 12.109375 -17.921875 
L 12.109375 -9.1875 
Q 16.0625 -11.328125 19.921875 -12.34375 
Q 23.78125 -13.375 27.78125 -13.375 
Q 36.625 -13.375 41.015625 -8.765625 
Q 45.40625 -4.15625 45.40625 5.171875 
L 45.40625 9.625 
Q 42.625 4.78125 38.28125 2.390625 
Q 33.9375 0 27.875 0 
Q 17.828125 0 11.671875 7.65625 
Q 5.515625 15.328125 5.515625 27.984375 
Q 5.515625 40.671875 11.671875 48.328125 
Q 17.828125 56 27.875 56 
Q 33.9375 56 38.28125 53.609375 
Q 42.625 51.21875 45.40625 46.390625 
L 45.40625 54.6875 
L 54.390625 54.6875 
z
" id="DejaVuSans-103"/>
       <path d="M 9.421875 75.984375 
L 18.40625 75.984375 
L 18.40625 0 
L 9.421875 0 
z
" id="DejaVuSans-108"/>
       <path d="M 9.078125 75.984375 
L 18.109375 75.984375 
L 18.109375 31.109375 
L 44.921875 54.6875 
L 56.390625 54.6875 
L 27.390625 29.109375 
L 57.625 0 
L 45.90625 0 
L 18.109375 26.703125 
L 18.109375 0 
L 9.078125 0 
z
" id="DejaVuSans-107"/>
       <path d="M 54.890625 33.015625 
L 54.890625 0 
L 45.90625 0 
L 45.90625 32.71875 
Q 45.90625 40.484375 42.875 44.328125 
Q 39.84375 48.1875 33.796875 48.1875 
Q 26.515625 48.1875 22.3125 43.546875 
Q 18.109375 38.921875 18.109375 30.90625 
L 18.109375 0 
L 9.078125 0 
L 9.078125 75.984375 
L 18.109375 75.984375 
L 18.109375 46.1875 
Q 21.34375 51.125 25.703125 53.5625 
Q 30.078125 56 35.796875 56 
Q 45.21875 56 50.046875 50.171875 
Q 54.890625 44.34375 54.890625 33.015625 
z
" id="DejaVuSans-104"/>
       <path d="M 45.40625 46.390625 
L 45.40625 75.984375 
L 54.390625 75.984375 
L 54.390625 0 
L 45.40625 0 
L 45.40625 8.203125 
Q 42.578125 3.328125 38.25 0.953125 
Q 33.9375 -1.421875 27.875 -1.421875 
Q 17.96875 -1.421875 11.734375 6.484375 
Q 5.515625 14.40625 5.515625 27.296875 
Q 5.515625 40.1875 11.734375 48.09375 
Q 17.96875 56 27.875 56 
Q 33.9375 56 38.25 53.625 
Q 42.578125 51.265625 45.40625 46.390625 
z
M 14.796875 27.296875 
Q 14.796875 17.390625 18.875 11.75 
Q 22.953125 6.109375 30.078125 6.109375 
Q 37.203125 6.109375 41.296875 11.75 
Q 45.40625 17.390625 45.40625 27.296875 
Q 45.40625 37.203125 41.296875 42.84375 
Q 37.203125 48.484375 30.078125 48.484375 
Q 22.953125 48.484375 18.875 42.84375 
Q 14.796875 37.203125 14.796875 27.296875 
z
" id="DejaVuSans-100"/>
      </defs>
      <use xlink:href="#DejaVuSans-76"/>
      <use x="53.962891" xlink:href="#DejaVuSans-111"/>
      <use x="115.144531" xlink:href="#DejaVuSans-103"/>
      <use x="178.621094" xlink:href="#DejaVuSans-32"/>
      <use x="210.408203" xlink:href="#DejaVuSans-108"/>
      <use x="238.191406" xlink:href="#DejaVuSans-105"/>
      <use x="265.974609" xlink:href="#DejaVuSans-107"/>
      <use x="320.259766" xlink:href="#DejaVuSans-101"/>
      <use x="381.783203" xlink:href="#DejaVuSans-108"/>
      <use x="409.566406" xlink:href="#DejaVuSans-105"/>
      <use x="437.349609" xlink:href="#DejaVuSans-104"/>
      <use x="500.728516" xlink:href="#DejaVuSans-111"/>
      <use x="561.910156" xlink:href="#DejaVuSans-111"/>
      <use x="623.091797" xlink:href="#DejaVuSans-100"/>
     </g>
    </g>
    <g id="text_14">
     <!-- 1e4 -->
     <g transform="translate(46.64 18.72)scale(0.1 -0.1)">
      <use xlink:href="#DejaVuSans-49"/>
      <use x="63.623047" xlink:href="#DejaVuSans-101"/>
      <use x="125.146484" xlink:href="#DejaVuSans-52"/>
     </g>
    </g>
   </g>
   <g id="line2d_12">
    <path clip-path="url(#p8fca8f1b56)" d="M 57.243912 167.116364 
L 59.386117 56.24394 
L 61.528321 38.223313 
L 63.670526 33.586105 
L 65.81273 37.548273 
L 67.954935 32.464509 
L 70.097139 30.789681 
L 72.239344 29.966015 
L 74.381548 29.506128 
L 76.523753 29.228262 
L 78.665957 29.051194 
L 80.808162 28.933987 
L 82.950366 28.854174 
L 85.092571 28.798621 
L 87.234775 28.759275 
L 89.37698 28.731006 
L 91.519184 28.710452 
L 93.661389 28.695352 
L 95.803593 28.684157 
L 97.945798 28.675787 
L 100.088002 28.66948 
L 102.230207 28.66469 
L 104.372411 28.661024 
L 106.514616 28.658195 
L 108.65682 28.655994 
L 110.799025 28.654266 
L 112.941229 28.652895 
L 115.083434 28.651796 
L 117.225638 28.650906 
L 119.367843 28.650176 
L 121.510047 28.64957 
L 123.652252 28.649061 
L 125.794456 28.648629 
L 127.936661 28.648256 
L 130.078865 28.647932 
L 132.22107 28.647647 
L 134.363274 28.647394 
L 136.505479 28.647168 
L 138.647683 28.646964 
L 140.789888 28.646779 
L 142.932092 28.64661 
L 145.074297 28.646455 
L 147.216501 28.646311 
L 149.358706 28.646179 
L 151.50091 28.646055 
L 153.643115 28.64594 
L 155.785319 28.645832 
L 157.927524 28.645731 
L 160.069728 28.645636 
L 162.211933 28.645546 
L 164.354137 28.645461 
L 166.496342 28.64538 
L 168.638546 28.645304 
L 170.780751 28.645231 
L 172.922955 28.645162 
L 175.06516 28.645096 
L 177.207364 28.645033 
L 179.349569 28.644972 
L 181.491773 28.644915 
L 183.633978 28.644859 
L 185.776182 28.644806 
L 187.918387 28.644755 
L 190.060591 28.644706 
L 192.202796 28.644659 
L 194.345 28.644613 
L 196.487205 28.644569 
L 198.629409 28.644527 
L 200.771614 28.644486 
L 202.913818 28.644446 
L 205.056023 28.644408 
L 207.198227 28.644371 
L 209.340432 28.644336 
L 211.482636 28.644301 
L 213.624841 28.644267 
L 215.767045 28.644235 
L 217.90925 28.644203 
L 220.051454 28.644172 
L 222.193659 28.644142 
L 224.335863 28.644113 
L 226.478068 28.644085 
L 228.620272 28.644057 
L 230.762477 28.64403 
L 232.904681 28.644004 
L 235.046886 28.643978 
L 237.18909 28.643953 
L 239.331295 28.643929 
L 241.473499 28.643905 
L 243.615704 28.643882 
L 245.757908 28.643859 
L 247.900113 28.643837 
L 250.042317 28.643815 
L 252.184522 28.643793 
L 254.326726 28.643773 
L 256.468931 28.643752 
L 258.611135 28.643732 
L 260.75334 28.643712 
L 262.895544 28.643693 
L 265.037749 28.643674 
L 267.179953 28.643655 
L 269.322158 28.643636 
" style="fill:none;stroke:#1f77b4;stroke-linecap:square;"/>
    <defs>
     <path d="M 0 1 
C 0.265203 1 0.51958 0.894634 0.707107 0.707107 
C 0.894634 0.51958 1 0.265203 1 0 
C 1 -0.265203 0.894634 -0.51958 0.707107 -0.707107 
C 0.51958 -0.894634 0.265203 -1 0 -1 
C -0.265203 -1 -0.51958 -0.894634 -0.707107 -0.707107 
C -0.894634 -0.51958 -1 -0.265203 -1 0 
C -1 0.265203 -0.894634 0.51958 -0.707107 0.707107 
C -0.51958 0.894634 -0.265203 1 0 1 
z
" id="m6652632b8b" style="stroke:#1f77b4;"/>
    </defs>
    <g clip-path="url(#p8fca8f1b56)">
     <use style="fill:#1f77b4;stroke:#1f77b4;" x="57.243912" xlink:href="#m6652632b8b" y="167.116364"/>
     <use style="fill:#1f77b4;stroke:#1f77b4;" x="59.386117" xlink:href="#m6652632b8b" y="56.24394"/>
     <use style="fill:#1f77b4;stroke:#1f77b4;" x="61.528321" xlink:href="#m6652632b8b" y="38.223313"/>
     <use style="fill:#1f77b4;stroke:#1f77b4;" x="63.670526" xlink:href="#m6652632b8b" y="33.586105"/>
     <use style="fill:#1f77b4;stroke:#1f77b4;" x="65.81273" xlink:href="#m6652632b8b" y="37.548273"/>
     <use style="fill:#1f77b4;stroke:#1f77b4;" x="67.954935" xlink:href="#m6652632b8b" y="32.464509"/>
     <use style="fill:#1f77b4;stroke:#1f77b4;" x="70.097139" xlink:href="#m6652632b8b" y="30.789681"/>
     <use style="fill:#1f77b4;stroke:#1f77b4;" x="72.239344" xlink:href="#m6652632b8b" y="29.966015"/>
     <use style="fill:#1f77b4;stroke:#1f77b4;" x="74.381548" xlink:href="#m6652632b8b" y="29.506128"/>
     <use style="fill:#1f77b4;stroke:#1f77b4;" x="76.523753" xlink:href="#m6652632b8b" y="29.228262"/>
     <use style="fill:#1f77b4;stroke:#1f77b4;" x="78.665957" xlink:href="#m6652632b8b" y="29.051194"/>
     <use style="fill:#1f77b4;stroke:#1f77b4;" x="80.808162" xlink:href="#m6652632b8b" y="28.933987"/>
     <use style="fill:#1f77b4;stroke:#1f77b4;" x="82.950366" xlink:href="#m6652632b8b" y="28.854174"/>
     <use style="fill:#1f77b4;stroke:#1f77b4;" x="85.092571" xlink:href="#m6652632b8b" y="28.798621"/>
     <use style="fill:#1f77b4;stroke:#1f77b4;" x="87.234775" xlink:href="#m6652632b8b" y="28.759275"/>
     <use style="fill:#1f77b4;stroke:#1f77b4;" x="89.37698" xlink:href="#m6652632b8b" y="28.731006"/>
     <use style="fill:#1f77b4;stroke:#1f77b4;" x="91.519184" xlink:href="#m6652632b8b" y="28.710452"/>
     <use style="fill:#1f77b4;stroke:#1f77b4;" x="93.661389" xlink:href="#m6652632b8b" y="28.695352"/>
     <use style="fill:#1f77b4;stroke:#1f77b4;" x="95.803593" xlink:href="#m6652632b8b" y="28.684157"/>
     <use style="fill:#1f77b4;stroke:#1f77b4;" x="97.945798" xlink:href="#m6652632b8b" y="28.675787"/>
     <use style="fill:#1f77b4;stroke:#1f77b4;" x="100.088002" xlink:href="#m6652632b8b" y="28.66948"/>
     <use style="fill:#1f77b4;stroke:#1f77b4;" x="102.230207" xlink:href="#m6652632b8b" y="28.66469"/>
     <use style="fill:#1f77b4;stroke:#1f77b4;" x="104.372411" xlink:href="#m6652632b8b" y="28.661024"/>
     <use style="fill:#1f77b4;stroke:#1f77b4;" x="106.514616" xlink:href="#m6652632b8b" y="28.658195"/>
     <use style="fill:#1f77b4;stroke:#1f77b4;" x="108.65682" xlink:href="#m6652632b8b" y="28.655994"/>
     <use style="fill:#1f77b4;stroke:#1f77b4;" x="110.799025" xlink:href="#m6652632b8b" y="28.654266"/>
     <use style="fill:#1f77b4;stroke:#1f77b4;" x="112.941229" xlink:href="#m6652632b8b" y="28.652895"/>
     <use style="fill:#1f77b4;stroke:#1f77b4;" x="115.083434" xlink:href="#m6652632b8b" y="28.651796"/>
     <use style="fill:#1f77b4;stroke:#1f77b4;" x="117.225638" xlink:href="#m6652632b8b" y="28.650906"/>
     <use style="fill:#1f77b4;stroke:#1f77b4;" x="119.367843" xlink:href="#m6652632b8b" y="28.650176"/>
     <use style="fill:#1f77b4;stroke:#1f77b4;" x="121.510047" xlink:href="#m6652632b8b" y="28.64957"/>
     <use style="fill:#1f77b4;stroke:#1f77b4;" x="123.652252" xlink:href="#m6652632b8b" y="28.649061"/>
     <use style="fill:#1f77b4;stroke:#1f77b4;" x="125.794456" xlink:href="#m6652632b8b" y="28.648629"/>
     <use style="fill:#1f77b4;stroke:#1f77b4;" x="127.936661" xlink:href="#m6652632b8b" y="28.648256"/>
     <use style="fill:#1f77b4;stroke:#1f77b4;" x="130.078865" xlink:href="#m6652632b8b" y="28.647932"/>
     <use style="fill:#1f77b4;stroke:#1f77b4;" x="132.22107" xlink:href="#m6652632b8b" y="28.647647"/>
     <use style="fill:#1f77b4;stroke:#1f77b4;" x="134.363274" xlink:href="#m6652632b8b" y="28.647394"/>
     <use style="fill:#1f77b4;stroke:#1f77b4;" x="136.505479" xlink:href="#m6652632b8b" y="28.647168"/>
     <use style="fill:#1f77b4;stroke:#1f77b4;" x="138.647683" xlink:href="#m6652632b8b" y="28.646964"/>
     <use style="fill:#1f77b4;stroke:#1f77b4;" x="140.789888" xlink:href="#m6652632b8b" y="28.646779"/>
     <use style="fill:#1f77b4;stroke:#1f77b4;" x="142.932092" xlink:href="#m6652632b8b" y="28.64661"/>
     <use style="fill:#1f77b4;stroke:#1f77b4;" x="145.074297" xlink:href="#m6652632b8b" y="28.646455"/>
     <use style="fill:#1f77b4;stroke:#1f77b4;" x="147.216501" xlink:href="#m6652632b8b" y="28.646311"/>
     <use style="fill:#1f77b4;stroke:#1f77b4;" x="149.358706" xlink:href="#m6652632b8b" y="28.646179"/>
     <use style="fill:#1f77b4;stroke:#1f77b4;" x="151.50091" xlink:href="#m6652632b8b" y="28.646055"/>
     <use style="fill:#1f77b4;stroke:#1f77b4;" x="153.643115" xlink:href="#m6652632b8b" y="28.64594"/>
     <use style="fill:#1f77b4;stroke:#1f77b4;" x="155.785319" xlink:href="#m6652632b8b" y="28.645832"/>
     <use style="fill:#1f77b4;stroke:#1f77b4;" x="157.927524" xlink:href="#m6652632b8b" y="28.645731"/>
     <use style="fill:#1f77b4;stroke:#1f77b4;" x="160.069728" xlink:href="#m6652632b8b" y="28.645636"/>
     <use style="fill:#1f77b4;stroke:#1f77b4;" x="162.211933" xlink:href="#m6652632b8b" y="28.645546"/>
     <use style="fill:#1f77b4;stroke:#1f77b4;" x="164.354137" xlink:href="#m6652632b8b" y="28.645461"/>
     <use style="fill:#1f77b4;stroke:#1f77b4;" x="166.496342" xlink:href="#m6652632b8b" y="28.64538"/>
     <use style="fill:#1f77b4;stroke:#1f77b4;" x="168.638546" xlink:href="#m6652632b8b" y="28.645304"/>
     <use style="fill:#1f77b4;stroke:#1f77b4;" x="170.780751" xlink:href="#m6652632b8b" y="28.645231"/>
     <use style="fill:#1f77b4;stroke:#1f77b4;" x="172.922955" xlink:href="#m6652632b8b" y="28.645162"/>
     <use style="fill:#1f77b4;stroke:#1f77b4;" x="175.06516" xlink:href="#m6652632b8b" y="28.645096"/>
     <use style="fill:#1f77b4;stroke:#1f77b4;" x="177.207364" xlink:href="#m6652632b8b" y="28.645033"/>
     <use style="fill:#1f77b4;stroke:#1f77b4;" x="179.349569" xlink:href="#m6652632b8b" y="28.644972"/>
     <use style="fill:#1f77b4;stroke:#1f77b4;" x="181.491773" xlink:href="#m6652632b8b" y="28.644915"/>
     <use style="fill:#1f77b4;stroke:#1f77b4;" x="183.633978" xlink:href="#m6652632b8b" y="28.644859"/>
     <use style="fill:#1f77b4;stroke:#1f77b4;" x="185.776182" xlink:href="#m6652632b8b" y="28.644806"/>
     <use style="fill:#1f77b4;stroke:#1f77b4;" x="187.918387" xlink:href="#m6652632b8b" y="28.644755"/>
     <use style="fill:#1f77b4;stroke:#1f77b4;" x="190.060591" xlink:href="#m6652632b8b" y="28.644706"/>
     <use style="fill:#1f77b4;stroke:#1f77b4;" x="192.202796" xlink:href="#m6652632b8b" y="28.644659"/>
     <use style="fill:#1f77b4;stroke:#1f77b4;" x="194.345" xlink:href="#m6652632b8b" y="28.644613"/>
     <use style="fill:#1f77b4;stroke:#1f77b4;" x="196.487205" xlink:href="#m6652632b8b" y="28.644569"/>
     <use style="fill:#1f77b4;stroke:#1f77b4;" x="198.629409" xlink:href="#m6652632b8b" y="28.644527"/>
     <use style="fill:#1f77b4;stroke:#1f77b4;" x="200.771614" xlink:href="#m6652632b8b" y="28.644486"/>
     <use style="fill:#1f77b4;stroke:#1f77b4;" x="202.913818" xlink:href="#m6652632b8b" y="28.644446"/>
     <use style="fill:#1f77b4;stroke:#1f77b4;" x="205.056023" xlink:href="#m6652632b8b" y="28.644408"/>
     <use style="fill:#1f77b4;stroke:#1f77b4;" x="207.198227" xlink:href="#m6652632b8b" y="28.644371"/>
     <use style="fill:#1f77b4;stroke:#1f77b4;" x="209.340432" xlink:href="#m6652632b8b" y="28.644336"/>
     <use style="fill:#1f77b4;stroke:#1f77b4;" x="211.482636" xlink:href="#m6652632b8b" y="28.644301"/>
     <use style="fill:#1f77b4;stroke:#1f77b4;" x="213.624841" xlink:href="#m6652632b8b" y="28.644267"/>
     <use style="fill:#1f77b4;stroke:#1f77b4;" x="215.767045" xlink:href="#m6652632b8b" y="28.644235"/>
     <use style="fill:#1f77b4;stroke:#1f77b4;" x="217.90925" xlink:href="#m6652632b8b" y="28.644203"/>
     <use style="fill:#1f77b4;stroke:#1f77b4;" x="220.051454" xlink:href="#m6652632b8b" y="28.644172"/>
     <use style="fill:#1f77b4;stroke:#1f77b4;" x="222.193659" xlink:href="#m6652632b8b" y="28.644142"/>
     <use style="fill:#1f77b4;stroke:#1f77b4;" x="224.335863" xlink:href="#m6652632b8b" y="28.644113"/>
     <use style="fill:#1f77b4;stroke:#1f77b4;" x="226.478068" xlink:href="#m6652632b8b" y="28.644085"/>
     <use style="fill:#1f77b4;stroke:#1f77b4;" x="228.620272" xlink:href="#m6652632b8b" y="28.644057"/>
     <use style="fill:#1f77b4;stroke:#1f77b4;" x="230.762477" xlink:href="#m6652632b8b" y="28.64403"/>
     <use style="fill:#1f77b4;stroke:#1f77b4;" x="232.904681" xlink:href="#m6652632b8b" y="28.644004"/>
     <use style="fill:#1f77b4;stroke:#1f77b4;" x="235.046886" xlink:href="#m6652632b8b" y="28.643978"/>
     <use style="fill:#1f77b4;stroke:#1f77b4;" x="237.18909" xlink:href="#m6652632b8b" y="28.643953"/>
     <use style="fill:#1f77b4;stroke:#1f77b4;" x="239.331295" xlink:href="#m6652632b8b" y="28.643929"/>
     <use style="fill:#1f77b4;stroke:#1f77b4;" x="241.473499" xlink:href="#m6652632b8b" y="28.643905"/>
     <use style="fill:#1f77b4;stroke:#1f77b4;" x="243.615704" xlink:href="#m6652632b8b" y="28.643882"/>
     <use style="fill:#1f77b4;stroke:#1f77b4;" x="245.757908" xlink:href="#m6652632b8b" y="28.643859"/>
     <use style="fill:#1f77b4;stroke:#1f77b4;" x="247.900113" xlink:href="#m6652632b8b" y="28.643837"/>
     <use style="fill:#1f77b4;stroke:#1f77b4;" x="250.042317" xlink:href="#m6652632b8b" y="28.643815"/>
     <use style="fill:#1f77b4;stroke:#1f77b4;" x="252.184522" xlink:href="#m6652632b8b" y="28.643793"/>
     <use style="fill:#1f77b4;stroke:#1f77b4;" x="254.326726" xlink:href="#m6652632b8b" y="28.643773"/>
     <use style="fill:#1f77b4;stroke:#1f77b4;" x="256.468931" xlink:href="#m6652632b8b" y="28.643752"/>
     <use style="fill:#1f77b4;stroke:#1f77b4;" x="258.611135" xlink:href="#m6652632b8b" y="28.643732"/>
     <use style="fill:#1f77b4;stroke:#1f77b4;" x="260.75334" xlink:href="#m6652632b8b" y="28.643712"/>
     <use style="fill:#1f77b4;stroke:#1f77b4;" x="262.895544" xlink:href="#m6652632b8b" y="28.643693"/>
     <use style="fill:#1f77b4;stroke:#1f77b4;" x="265.037749" xlink:href="#m6652632b8b" y="28.643674"/>
     <use style="fill:#1f77b4;stroke:#1f77b4;" x="267.179953" xlink:href="#m6652632b8b" y="28.643655"/>
     <use style="fill:#1f77b4;stroke:#1f77b4;" x="269.322158" xlink:href="#m6652632b8b" y="28.643636"/>
    </g>
   </g>
   <g id="patch_3">
    <path d="M 46.64 174.04 
L 46.64 21.72 
" style="fill:none;stroke:#000000;stroke-linecap:square;stroke-linejoin:miter;stroke-width:0.8;"/>
   </g>
   <g id="patch_4">
    <path d="M 279.92607 174.04 
L 279.92607 21.72 
" style="fill:none;stroke:#000000;stroke-linecap:square;stroke-linejoin:miter;stroke-width:0.8;"/>
   </g>
   <g id="patch_5">
    <path d="M 46.64 174.04 
L 279.92607 174.04 
" style="fill:none;stroke:#000000;stroke-linecap:square;stroke-linejoin:miter;stroke-width:0.8;"/>
   </g>
   <g id="patch_6">
    <path d="M 46.64 21.72 
L 279.92607 21.72 
" style="fill:none;stroke:#000000;stroke-linecap:square;stroke-linejoin:miter;stroke-width:0.8;"/>
   </g>
   <g id="legend_1">
    <g id="patch_7">
     <path d="M 189.82607 169.04 
L 272.92607 169.04 
Q 274.92607 169.04 274.92607 167.04 
L 274.92607 153.361875 
Q 274.92607 151.361875 272.92607 151.361875 
L 189.82607 151.361875 
Q 187.82607 151.361875 187.82607 153.361875 
L 187.82607 167.04 
Q 187.82607 169.04 189.82607 169.04 
z
" style="fill:#ffffff;opacity:0.8;stroke:#cccccc;stroke-linejoin:miter;"/>
    </g>
    <g id="line2d_13">
     <path d="M 191.82607 159.460313 
L 211.82607 159.460313 
" style="fill:none;stroke:#1f77b4;stroke-linecap:square;"/>
    </g>
    <g id="line2d_14">
     <g>
      <use style="fill:#1f77b4;stroke:#1f77b4;" x="201.82607" xlink:href="#m6652632b8b" y="159.460313"/>
     </g>
    </g>
    <g id="text_15">
     <!-- $x^{[0]}=35.0$ -->
     <g transform="translate(219.82607 162.960313)scale(0.1 -0.1)">
      <defs>
       <path d="M 60.015625 54.6875 
L 34.90625 27.875 
L 50.296875 0 
L 39.984375 0 
L 28.421875 21.6875 
L 8.296875 0 
L -2.59375 0 
L 24.3125 28.8125 
L 10.015625 54.6875 
L 20.3125 54.6875 
L 30.8125 34.90625 
L 49.125 54.6875 
z
" id="DejaVuSans-Oblique-120"/>
       <path d="M 8.59375 75.984375 
L 29.296875 75.984375 
L 29.296875 69 
L 17.578125 69 
L 17.578125 -6.203125 
L 29.296875 -6.203125 
L 29.296875 -13.1875 
L 8.59375 -13.1875 
z
" id="DejaVuSans-91"/>
       <path d="M 30.421875 75.984375 
L 30.421875 -13.1875 
L 9.71875 -13.1875 
L 9.71875 -6.203125 
L 21.390625 -6.203125 
L 21.390625 69 
L 9.71875 69 
L 9.71875 75.984375 
z
" id="DejaVuSans-93"/>
       <path d="M 10.59375 45.40625 
L 73.1875 45.40625 
L 73.1875 37.203125 
L 10.59375 37.203125 
z
M 10.59375 25.484375 
L 73.1875 25.484375 
L 73.1875 17.1875 
L 10.59375 17.1875 
z
" id="DejaVuSans-61"/>
       <path d="M 10.6875 12.40625 
L 21 12.40625 
L 21 0 
L 10.6875 0 
z
" id="DejaVuSans-46"/>
      </defs>
      <use transform="translate(0 0.529687)" xlink:href="#DejaVuSans-Oblique-120"/>
      <use transform="translate(63.645833 38.810937)scale(0.7)" xlink:href="#DejaVuSans-91"/>
      <use transform="translate(90.955404 38.810937)scale(0.7)" xlink:href="#DejaVuSans-48"/>
      <use transform="translate(135.491536 38.810937)scale(0.7)" xlink:href="#DejaVuSans-93"/>
      <use transform="translate(185.017904 0.529687)" xlink:href="#DejaVuSans-61"/>
      <use transform="translate(288.289388 0.529687)" xlink:href="#DejaVuSans-51"/>
      <use transform="translate(351.912435 0.529687)" xlink:href="#DejaVuSans-53"/>
      <use transform="translate(415.535482 0.529687)" xlink:href="#DejaVuSans-46"/>
      <use transform="translate(447.322591 0.529687)" xlink:href="#DejaVuSans-48"/>
     </g>
    </g>
   </g>
  </g>
  <g id="axes_2">
   <g id="patch_8">
    <path d="M 331.91393 174.04 
L 565.2 174.04 
L 565.2 21.72 
L 331.91393 21.72 
z
" style="fill:#ffffff;"/>
   </g>
   <g id="matplotlib.axis_3">
    <g id="xtick_7">
     <g id="line2d_15">
      <g>
       <use style="stroke:#000000;stroke-width:0.8;" x="342.517842" xlink:href="#mb050203742" y="174.04"/>
      </g>
     </g>
     <g id="text_16">
      <!-- 30 -->
      <g transform="translate(336.155342 188.638438)scale(0.1 -0.1)">
       <use xlink:href="#DejaVuSans-51"/>
       <use x="63.623047" xlink:href="#DejaVuSans-48"/>
      </g>
     </g>
    </g>
    <g id="xtick_8">
     <g id="line2d_16">
      <g>
       <use style="stroke:#000000;stroke-width:0.8;" x="395.537403" xlink:href="#mb050203742" y="174.04"/>
      </g>
     </g>
     <g id="text_17">
      <!-- 40 -->
      <g transform="translate(389.174903 188.638438)scale(0.1 -0.1)">
       <use xlink:href="#DejaVuSans-52"/>
       <use x="63.623047" xlink:href="#DejaVuSans-48"/>
      </g>
     </g>
    </g>
    <g id="xtick_9">
     <g id="line2d_17">
      <g>
       <use style="stroke:#000000;stroke-width:0.8;" x="448.556965" xlink:href="#mb050203742" y="174.04"/>
      </g>
     </g>
     <g id="text_18">
      <!-- 50 -->
      <g transform="translate(442.194465 188.638438)scale(0.1 -0.1)">
       <use xlink:href="#DejaVuSans-53"/>
       <use x="63.623047" xlink:href="#DejaVuSans-48"/>
      </g>
     </g>
    </g>
    <g id="xtick_10">
     <g id="line2d_18">
      <g>
       <use style="stroke:#000000;stroke-width:0.8;" x="501.576526" xlink:href="#mb050203742" y="174.04"/>
      </g>
     </g>
     <g id="text_19">
      <!-- 60 -->
      <g transform="translate(495.214026 188.638438)scale(0.1 -0.1)">
       <use xlink:href="#DejaVuSans-54"/>
       <use x="63.623047" xlink:href="#DejaVuSans-48"/>
      </g>
     </g>
    </g>
    <g id="xtick_11">
     <g id="line2d_19">
      <g>
       <use style="stroke:#000000;stroke-width:0.8;" x="554.596088" xlink:href="#mb050203742" y="174.04"/>
      </g>
     </g>
     <g id="text_20">
      <!-- 70 -->
      <g transform="translate(548.233588 188.638438)scale(0.1 -0.1)">
       <use xlink:href="#DejaVuSans-55"/>
       <use x="63.623047" xlink:href="#DejaVuSans-48"/>
      </g>
     </g>
    </g>
    <g id="text_21">
     <!-- x position -->
     <g transform="translate(424.20384 202.316563)scale(0.1 -0.1)">
      <defs>
       <path d="M 54.890625 54.6875 
L 35.109375 28.078125 
L 55.90625 0 
L 45.3125 0 
L 29.390625 21.484375 
L 13.484375 0 
L 2.875 0 
L 24.125 28.609375 
L 4.6875 54.6875 
L 15.28125 54.6875 
L 29.78125 35.203125 
L 44.28125 54.6875 
z
" id="DejaVuSans-120"/>
       <path d="M 18.109375 8.203125 
L 18.109375 -20.796875 
L 9.078125 -20.796875 
L 9.078125 54.6875 
L 18.109375 54.6875 
L 18.109375 46.390625 
Q 20.953125 51.265625 25.265625 53.625 
Q 29.59375 56 35.59375 56 
Q 45.5625 56 51.78125 48.09375 
Q 58.015625 40.1875 58.015625 27.296875 
Q 58.015625 14.40625 51.78125 6.484375 
Q 45.5625 -1.421875 35.59375 -1.421875 
Q 29.59375 -1.421875 25.265625 0.953125 
Q 20.953125 3.328125 18.109375 8.203125 
z
M 48.6875 27.296875 
Q 48.6875 37.203125 44.609375 42.84375 
Q 40.53125 48.484375 33.40625 48.484375 
Q 26.265625 48.484375 22.1875 42.84375 
Q 18.109375 37.203125 18.109375 27.296875 
Q 18.109375 17.390625 22.1875 11.75 
Q 26.265625 6.109375 33.40625 6.109375 
Q 40.53125 6.109375 44.609375 11.75 
Q 48.6875 17.390625 48.6875 27.296875 
z
" id="DejaVuSans-112"/>
       <path d="M 44.28125 53.078125 
L 44.28125 44.578125 
Q 40.484375 46.53125 36.375 47.5 
Q 32.28125 48.484375 27.875 48.484375 
Q 21.1875 48.484375 17.84375 46.4375 
Q 14.5 44.390625 14.5 40.28125 
Q 14.5 37.15625 16.890625 35.375 
Q 19.28125 33.59375 26.515625 31.984375 
L 29.59375 31.296875 
Q 39.15625 29.25 43.1875 25.515625 
Q 47.21875 21.78125 47.21875 15.09375 
Q 47.21875 7.46875 41.1875 3.015625 
Q 35.15625 -1.421875 24.609375 -1.421875 
Q 20.21875 -1.421875 15.453125 -0.5625 
Q 10.6875 0.296875 5.421875 2 
L 5.421875 11.28125 
Q 10.40625 8.6875 15.234375 7.390625 
Q 20.0625 6.109375 24.8125 6.109375 
Q 31.15625 6.109375 34.5625 8.28125 
Q 37.984375 10.453125 37.984375 14.40625 
Q 37.984375 18.0625 35.515625 20.015625 
Q 33.0625 21.96875 24.703125 23.78125 
L 21.578125 24.515625 
Q 13.234375 26.265625 9.515625 29.90625 
Q 5.8125 33.546875 5.8125 39.890625 
Q 5.8125 47.609375 11.28125 51.796875 
Q 16.75 56 26.8125 56 
Q 31.78125 56 36.171875 55.265625 
Q 40.578125 54.546875 44.28125 53.078125 
z
" id="DejaVuSans-115"/>
      </defs>
      <use xlink:href="#DejaVuSans-120"/>
      <use x="59.179688" xlink:href="#DejaVuSans-32"/>
      <use x="90.966797" xlink:href="#DejaVuSans-112"/>
      <use x="154.443359" xlink:href="#DejaVuSans-111"/>
      <use x="215.625" xlink:href="#DejaVuSans-115"/>
      <use x="267.724609" xlink:href="#DejaVuSans-105"/>
      <use x="295.507812" xlink:href="#DejaVuSans-116"/>
      <use x="334.716797" xlink:href="#DejaVuSans-105"/>
      <use x="362.5" xlink:href="#DejaVuSans-111"/>
      <use x="423.681641" xlink:href="#DejaVuSans-110"/>
     </g>
    </g>
   </g>
   <g id="matplotlib.axis_4">
    <g id="ytick_6">
     <g id="line2d_20">
      <g>
       <use style="stroke:#000000;stroke-width:0.8;" x="331.91393" xlink:href="#m99b3d1c078" y="167.116364"/>
      </g>
     </g>
     <g id="text_22">
      <!-- 0.0 -->
      <g transform="translate(309.010805 170.915582)scale(0.1 -0.1)">
       <use xlink:href="#DejaVuSans-48"/>
       <use x="63.623047" xlink:href="#DejaVuSans-46"/>
       <use x="95.410156" xlink:href="#DejaVuSans-48"/>
      </g>
     </g>
    </g>
    <g id="ytick_7">
     <g id="line2d_21">
      <g>
       <use style="stroke:#000000;stroke-width:0.8;" x="331.91393" xlink:href="#m99b3d1c078" y="135.164892"/>
      </g>
     </g>
     <g id="text_23">
      <!-- 0.1 -->
      <g transform="translate(309.010805 138.964111)scale(0.1 -0.1)">
       <use xlink:href="#DejaVuSans-48"/>
       <use x="63.623047" xlink:href="#DejaVuSans-46"/>
       <use x="95.410156" xlink:href="#DejaVuSans-49"/>
      </g>
     </g>
    </g>
    <g id="ytick_8">
     <g id="line2d_22">
      <g>
       <use style="stroke:#000000;stroke-width:0.8;" x="331.91393" xlink:href="#m99b3d1c078" y="103.21342"/>
      </g>
     </g>
     <g id="text_24">
      <!-- 0.2 -->
      <g transform="translate(309.010805 107.012639)scale(0.1 -0.1)">
       <use xlink:href="#DejaVuSans-48"/>
       <use x="63.623047" xlink:href="#DejaVuSans-46"/>
       <use x="95.410156" xlink:href="#DejaVuSans-50"/>
      </g>
     </g>
    </g>
    <g id="ytick_9">
     <g id="line2d_23">
      <g>
       <use style="stroke:#000000;stroke-width:0.8;" x="331.91393" xlink:href="#m99b3d1c078" y="71.261949"/>
      </g>
     </g>
     <g id="text_25">
      <!-- 0.3 -->
      <g transform="translate(309.010805 75.061167)scale(0.1 -0.1)">
       <use xlink:href="#DejaVuSans-48"/>
       <use x="63.623047" xlink:href="#DejaVuSans-46"/>
       <use x="95.410156" xlink:href="#DejaVuSans-51"/>
      </g>
     </g>
    </g>
    <g id="ytick_10">
     <g id="line2d_24">
      <g>
       <use style="stroke:#000000;stroke-width:0.8;" x="331.91393" xlink:href="#m99b3d1c078" y="39.310477"/>
      </g>
     </g>
     <g id="text_26">
      <!-- 0.4 -->
      <g transform="translate(309.010805 43.109696)scale(0.1 -0.1)">
       <use xlink:href="#DejaVuSans-48"/>
       <use x="63.623047" xlink:href="#DejaVuSans-46"/>
       <use x="95.410156" xlink:href="#DejaVuSans-52"/>
      </g>
     </g>
    </g>
    <g id="text_27">
     <!-- $ p_{eq}(x) $ -->
     <g transform="translate(301.910805 112.43)rotate(-90)scale(0.1 -0.1)">
      <defs>
       <path d="M 49.609375 33.6875 
Q 49.609375 40.875 46.484375 44.671875 
Q 43.359375 48.484375 37.5 48.484375 
Q 33.5 48.484375 29.859375 46.4375 
Q 26.21875 44.390625 23.390625 40.484375 
Q 20.609375 36.625 18.9375 31.15625 
Q 17.28125 25.6875 17.28125 20.3125 
Q 17.28125 13.484375 20.40625 9.796875 
Q 23.53125 6.109375 29.296875 6.109375 
Q 33.546875 6.109375 37.1875 8.109375 
Q 40.828125 10.109375 43.40625 13.921875 
Q 46.1875 17.921875 47.890625 23.34375 
Q 49.609375 28.765625 49.609375 33.6875 
z
M 21.78125 46.390625 
Q 25.390625 51.125 30.296875 53.5625 
Q 35.203125 56 41.21875 56 
Q 49.609375 56 54.25 50.5 
Q 58.890625 45.015625 58.890625 35.109375 
Q 58.890625 27 56 19.65625 
Q 53.125 12.3125 47.703125 6.5 
Q 44.09375 2.640625 39.546875 0.609375 
Q 35.015625 -1.421875 29.984375 -1.421875 
Q 24.171875 -1.421875 20.21875 1 
Q 16.265625 3.421875 14.3125 8.203125 
L 8.6875 -20.796875 
L -0.296875 -20.796875 
L 14.40625 54.6875 
L 23.390625 54.6875 
z
" id="DejaVuSans-Oblique-112"/>
       <path d="M 48.09375 32.234375 
Q 48.25 33.015625 48.3125 33.84375 
Q 48.390625 34.671875 48.390625 35.5 
Q 48.390625 41.453125 44.890625 44.921875 
Q 41.40625 48.390625 35.40625 48.390625 
Q 28.71875 48.390625 23.578125 44.15625 
Q 18.453125 39.9375 15.828125 32.171875 
z
M 55.90625 25.203125 
L 14.109375 25.203125 
Q 13.8125 23.34375 13.71875 22.265625 
Q 13.625 21.1875 13.625 20.40625 
Q 13.625 13.625 17.796875 9.90625 
Q 21.96875 6.203125 29.59375 6.203125 
Q 35.453125 6.203125 40.671875 7.515625 
Q 45.90625 8.84375 50.390625 11.375 
L 48.6875 2.484375 
Q 43.84375 0.53125 38.6875 -0.4375 
Q 33.546875 -1.421875 28.21875 -1.421875 
Q 16.84375 -1.421875 10.71875 4.015625 
Q 4.59375 9.46875 4.59375 19.484375 
Q 4.59375 28.03125 7.640625 35.375 
Q 10.6875 42.71875 16.609375 48.484375 
Q 20.40625 52.09375 25.65625 54.046875 
Q 30.90625 56 36.8125 56 
Q 46.09375 56 51.578125 50.4375 
Q 57.078125 44.875 57.078125 35.5 
Q 57.078125 33.25 56.78125 30.6875 
Q 56.5 28.125 55.90625 25.203125 
z
" id="DejaVuSans-Oblique-101"/>
       <path d="M 41.703125 8.203125 
Q 38.09375 3.46875 33.171875 1.015625 
Q 28.265625 -1.421875 22.3125 -1.421875 
Q 14.015625 -1.421875 9.296875 4.171875 
Q 4.59375 9.765625 4.59375 19.578125 
Q 4.59375 27.484375 7.5 34.859375 
Q 10.40625 42.234375 15.828125 48.09375 
Q 19.34375 51.90625 23.90625 53.953125 
Q 28.46875 56 33.5 56 
Q 39.546875 56 43.453125 53.609375 
Q 47.359375 51.21875 49.125 46.390625 
L 50.6875 54.59375 
L 59.71875 54.59375 
L 45.125 -20.609375 
L 36.078125 -20.609375 
z
M 13.921875 20.90625 
Q 13.921875 13.671875 16.9375 9.890625 
Q 19.96875 6.109375 25.6875 6.109375 
Q 34.1875 6.109375 40.1875 14.234375 
Q 46.1875 22.359375 46.1875 33.984375 
Q 46.1875 41.015625 43.078125 44.75 
Q 39.984375 48.484375 34.1875 48.484375 
Q 29.9375 48.484375 26.3125 46.5 
Q 22.703125 44.53125 20.015625 40.71875 
Q 17.1875 36.71875 15.546875 31.34375 
Q 13.921875 25.984375 13.921875 20.90625 
z
" id="DejaVuSans-Oblique-113"/>
       <path d="M 31 75.875 
Q 24.46875 64.65625 21.28125 53.65625 
Q 18.109375 42.671875 18.109375 31.390625 
Q 18.109375 20.125 21.3125 9.0625 
Q 24.515625 -2 31 -13.1875 
L 23.1875 -13.1875 
Q 15.875 -1.703125 12.234375 9.375 
Q 8.59375 20.453125 8.59375 31.390625 
Q 8.59375 42.28125 12.203125 53.3125 
Q 15.828125 64.359375 23.1875 75.875 
z
" id="DejaVuSans-40"/>
       <path d="M 8.015625 75.875 
L 15.828125 75.875 
Q 23.140625 64.359375 26.78125 53.3125 
Q 30.421875 42.28125 30.421875 31.390625 
Q 30.421875 20.453125 26.78125 9.375 
Q 23.140625 -1.703125 15.828125 -13.1875 
L 8.015625 -13.1875 
Q 14.5 -2 17.703125 9.0625 
Q 20.90625 20.125 20.90625 31.390625 
Q 20.90625 42.671875 17.703125 53.65625 
Q 14.5 64.65625 8.015625 75.875 
z
" id="DejaVuSans-41"/>
      </defs>
      <use transform="translate(0 0.125)" xlink:href="#DejaVuSans-Oblique-112"/>
      <use transform="translate(63.476562 -16.28125)scale(0.7)" xlink:href="#DejaVuSans-Oblique-101"/>
      <use transform="translate(106.542969 -16.28125)scale(0.7)" xlink:href="#DejaVuSans-Oblique-113"/>
      <use transform="translate(153.710938 0.125)" xlink:href="#DejaVuSans-40"/>
      <use transform="translate(192.724609 0.125)" xlink:href="#DejaVuSans-Oblique-120"/>
      <use transform="translate(251.904297 0.125)" xlink:href="#DejaVuSans-41"/>
     </g>
    </g>
   </g>
   <g id="line2d_25">
    <path clip-path="url(#p6149d2e45d)" d="M 342.517842 167.116364 
L 429.59052 167.064258 
L 431.988352 166.827785 
L 432.904242 166.524994 
L 434.386184 165.398758 
L 435.302075 163.994739 
L 436.217965 161.708712 
L 437.699907 155.311975 
L 438.615797 149.24097 
L 439.531688 141.380662 
L 441.013629 124.857616 
L 442.84541 98.508333 
L 445.243242 58.810381 
L 446.159133 45.465933 
L 447.641074 31.266131 
L 448.556965 28.643636 
L 449.472855 30.938681 
L 450.954797 43.617708 
L 451.870687 55.731217 
L 452.786578 70.142195 
L 455.18441 111.274899 
L 456.1003 125.050302 
L 457.582242 142.221739 
L 458.498133 149.699466 
L 459.414023 155.239257 
L 460.895965 161.260583 
L 461.811855 163.624073 
L 462.727746 165.203135 
L 464.209687 166.515662 
L 465.125578 166.853806 
L 466.041468 167.006516 
L 469.355191 167.112044 
L 515.747307 167.116364 
L 554.596088 167.116364 
L 554.596088 167.116364 
" style="fill:none;stroke:#1f77b4;stroke-linecap:square;stroke-width:1.5;"/>
   </g>
   <g id="line2d_26">
    <path clip-path="url(#p6149d2e45d)" d="M 342.517842 162.377011 
L 343.433732 161.500125 
L 344.915674 159.817626 
L 346.747455 157.241363 
L 349.145287 152.967271 
L 350.061178 151.058066 
L 352.45901 145.372361 
L 354.856842 138.853647 
L 361.484287 119.959482 
L 363.316068 115.705329 
L 364.79801 112.939136 
L 365.7139 111.591107 
L 366.629791 110.548157 
L 368.111732 109.551269 
L 369.027623 109.379232 
L 369.943513 109.551269 
L 371.425455 110.548157 
L 372.341345 111.591107 
L 373.257236 112.939136 
L 374.739178 115.705329 
L 376.570958 119.959482 
L 378.968791 126.493218 
L 384.680345 142.965504 
L 386.512126 147.655844 
L 388.909958 152.967271 
L 389.825849 154.72367 
L 392.223681 158.60129 
L 393.139571 159.817626 
L 395.537403 162.377011 
L 396.453294 163.140784 
L 398.851126 164.676754 
L 399.767016 165.113626 
L 402.164849 165.954935 
L 404.562681 166.469824 
L 407.876403 166.847342 
L 412.106016 167.037943 
L 419.649352 167.110018 
L 485.007913 167.116364 
L 554.596088 167.116364 
L 554.596088 167.116364 
" style="fill:none;stroke:#ff7f0e;stroke-linecap:square;stroke-width:1.5;"/>
   </g>
   <g id="line2d_27">
    <path clip-path="url(#p6149d2e45d)" d="M 342.517842 167.116364 
L 427.758739 167.058293 
L 429.59052 166.904224 
L 431.072462 166.561869 
L 431.988352 166.150708 
L 432.904242 165.484109 
L 434.386184 163.533796 
L 435.302075 161.515814 
L 436.217965 158.618552 
L 437.699907 151.454425 
L 438.615797 145.138136 
L 439.531688 137.181314 
L 441.013629 120.787644 
L 442.84541 95.764287 
L 445.243242 62.264105 
L 446.159133 52.03978 
L 447.641074 41.536207 
L 448.556965 39.648434 
L 449.472855 41.536207 
L 450.954797 52.03978 
L 451.870687 62.264105 
L 452.786578 74.38881 
L 456.1003 120.787644 
L 457.582242 137.181314 
L 458.498133 145.138136 
L 459.414023 151.454425 
L 460.895965 158.618552 
L 461.811855 161.515814 
L 462.727746 163.533796 
L 464.209687 165.484109 
L 465.125578 166.150708 
L 466.041468 166.561869 
L 468.4393 167.003704 
L 471.753023 167.10747 
L 494.033191 167.116364 
L 554.596088 167.116364 
L 554.596088 167.116364 
" style="fill:none;stroke:#2ca02c;stroke-linecap:square;stroke-opacity:0.3;stroke-width:4.5;"/>
   </g>
   <g id="line2d_28">
    <path clip-path="url(#p6149d2e45d)" d="M 342.517842 174.04 
L 342.517842 21.72 
" style="fill:none;stroke:#808080;stroke-linecap:square;stroke-opacity:0.2;stroke-width:1.5;"/>
   </g>
   <g id="line2d_29">
    <path clip-path="url(#p6149d2e45d)" d="M 369.027623 174.04 
L 369.027623 21.72 
" style="fill:none;stroke:#808080;stroke-linecap:square;stroke-opacity:0.2;stroke-width:1.5;"/>
   </g>
   <g id="line2d_30">
    <path clip-path="url(#p6149d2e45d)" d="M 395.537403 174.04 
L 395.537403 21.72 
" style="fill:none;stroke:#808080;stroke-linecap:square;stroke-opacity:0.2;stroke-width:1.5;"/>
   </g>
   <g id="line2d_31">
    <path clip-path="url(#p6149d2e45d)" d="M 422.047184 174.04 
L 422.047184 21.72 
" style="fill:none;stroke:#808080;stroke-linecap:square;stroke-opacity:0.2;stroke-width:1.5;"/>
   </g>
   <g id="line2d_32">
    <path clip-path="url(#p6149d2e45d)" d="M 448.556965 174.04 
L 448.556965 21.72 
" style="fill:none;stroke:#808080;stroke-linecap:square;stroke-opacity:0.2;stroke-width:1.5;"/>
   </g>
   <g id="line2d_33">
    <path clip-path="url(#p6149d2e45d)" d="M 475.066746 174.04 
L 475.066746 21.72 
" style="fill:none;stroke:#808080;stroke-linecap:square;stroke-opacity:0.2;stroke-width:1.5;"/>
   </g>
   <g id="line2d_34">
    <path clip-path="url(#p6149d2e45d)" d="M 501.576526 174.04 
L 501.576526 21.72 
" style="fill:none;stroke:#808080;stroke-linecap:square;stroke-opacity:0.2;stroke-width:1.5;"/>
   </g>
   <g id="line2d_35">
    <path clip-path="url(#p6149d2e45d)" d="M 528.086307 174.04 
L 528.086307 21.72 
" style="fill:none;stroke:#808080;stroke-linecap:square;stroke-opacity:0.2;stroke-width:1.5;"/>
   </g>
   <g id="line2d_36">
    <path clip-path="url(#p6149d2e45d)" d="M 554.596088 174.04 
L 554.596088 21.72 
" style="fill:none;stroke:#808080;stroke-linecap:square;stroke-opacity:0.2;stroke-width:1.5;"/>
   </g>
   <g id="patch_9">
    <path d="M 331.91393 174.04 
L 331.91393 21.72 
" style="fill:none;stroke:#000000;stroke-linecap:square;stroke-linejoin:miter;stroke-width:0.8;"/>
   </g>
   <g id="patch_10">
    <path d="M 565.2 174.04 
L 565.2 21.72 
" style="fill:none;stroke:#000000;stroke-linecap:square;stroke-linejoin:miter;stroke-width:0.8;"/>
   </g>
   <g id="patch_11">
    <path d="M 331.91393 174.04 
L 565.2 174.04 
" style="fill:none;stroke:#000000;stroke-linecap:square;stroke-linejoin:miter;stroke-width:0.8;"/>
   </g>
   <g id="patch_12">
    <path d="M 331.91393 21.72 
L 565.2 21.72 
" style="fill:none;stroke:#000000;stroke-linecap:square;stroke-linejoin:miter;stroke-width:0.8;"/>
   </g>
   <g id="legend_2">
    <g id="patch_13">
     <path d="M 488.557812 73.798125 
L 558.2 73.798125 
Q 560.2 73.798125 560.2 71.798125 
L 560.2 28.72 
Q 560.2 26.72 558.2 26.72 
L 488.557812 26.72 
Q 486.557812 26.72 486.557812 28.72 
L 486.557812 71.798125 
Q 486.557812 73.798125 488.557812 73.798125 
z
" style="fill:#ffffff;opacity:0.8;stroke:#cccccc;stroke-linejoin:miter;"/>
    </g>
    <g id="line2d_37">
     <path d="M 490.557812 34.818438 
L 510.557812 34.818438 
" style="fill:none;stroke:#1f77b4;stroke-linecap:square;stroke-width:1.5;"/>
    </g>
    <g id="line2d_38"/>
    <g id="text_28">
     <!-- EM-100 -->
     <g transform="translate(518.557812 38.318438)scale(0.1 -0.1)">
      <defs>
       <path d="M 9.8125 72.90625 
L 55.90625 72.90625 
L 55.90625 64.59375 
L 19.671875 64.59375 
L 19.671875 43.015625 
L 54.390625 43.015625 
L 54.390625 34.71875 
L 19.671875 34.71875 
L 19.671875 8.296875 
L 56.78125 8.296875 
L 56.78125 0 
L 9.8125 0 
z
" id="DejaVuSans-69"/>
       <path d="M 9.8125 72.90625 
L 24.515625 72.90625 
L 43.109375 23.296875 
L 61.8125 72.90625 
L 76.515625 72.90625 
L 76.515625 0 
L 66.890625 0 
L 66.890625 64.015625 
L 48.09375 14.015625 
L 38.1875 14.015625 
L 19.390625 64.015625 
L 19.390625 0 
L 9.8125 0 
z
" id="DejaVuSans-77"/>
       <path d="M 4.890625 31.390625 
L 31.203125 31.390625 
L 31.203125 23.390625 
L 4.890625 23.390625 
z
" id="DejaVuSans-45"/>
      </defs>
      <use xlink:href="#DejaVuSans-69"/>
      <use x="63.183594" xlink:href="#DejaVuSans-77"/>
      <use x="149.462891" xlink:href="#DejaVuSans-45"/>
      <use x="185.546875" xlink:href="#DejaVuSans-49"/>
      <use x="249.169922" xlink:href="#DejaVuSans-48"/>
      <use x="312.792969" xlink:href="#DejaVuSans-48"/>
     </g>
    </g>
    <g id="line2d_39">
     <path d="M 490.557812 49.498125 
L 510.557812 49.498125 
" style="fill:none;stroke:#ff7f0e;stroke-linecap:square;stroke-width:1.5;"/>
    </g>
    <g id="line2d_40"/>
    <g id="text_29">
     <!-- $ p_0(x) $ -->
     <g transform="translate(518.557812 52.998125)scale(0.1 -0.1)">
      <use transform="translate(0 0.125)" xlink:href="#DejaVuSans-Oblique-112"/>
      <use transform="translate(63.476562 -16.28125)scale(0.7)" xlink:href="#DejaVuSans-48"/>
      <use transform="translate(110.74707 0.125)" xlink:href="#DejaVuSans-40"/>
      <use transform="translate(149.760742 0.125)" xlink:href="#DejaVuSans-Oblique-120"/>
      <use transform="translate(208.94043 0.125)" xlink:href="#DejaVuSans-41"/>
     </g>
    </g>
    <g id="line2d_41">
     <path d="M 490.557812 64.198125 
L 510.557812 64.198125 
" style="fill:none;stroke:#2ca02c;stroke-linecap:square;stroke-opacity:0.3;stroke-width:4.5;"/>
    </g>
    <g id="line2d_42"/>
    <g id="text_30">
     <!-- $ p_{ref}(x) $ -->
     <g transform="translate(518.557812 67.698125)scale(0.1 -0.1)">
      <defs>
       <path d="M 44.578125 46.390625 
Q 43.21875 47.125 41.453125 47.515625 
Q 39.703125 47.90625 37.703125 47.90625 
Q 30.515625 47.90625 25.140625 42.453125 
Q 19.78125 37.015625 18.015625 27.875 
L 12.5 0 
L 3.515625 0 
L 14.203125 54.6875 
L 23.1875 54.6875 
L 21.484375 46.1875 
Q 25.046875 50.921875 30 53.453125 
Q 34.96875 56 40.578125 56 
Q 42.046875 56 43.453125 55.828125 
Q 44.875 55.671875 46.296875 55.28125 
z
" id="DejaVuSans-Oblique-114"/>
       <path d="M 47.796875 75.984375 
L 46.390625 68.5 
L 37.796875 68.5 
Q 32.90625 68.5 30.6875 66.578125 
Q 28.46875 64.65625 27.390625 59.515625 
L 26.421875 54.6875 
L 41.21875 54.6875 
L 39.890625 47.703125 
L 25.09375 47.703125 
L 15.828125 0 
L 6.78125 0 
L 16.109375 47.703125 
L 7.515625 47.703125 
L 8.796875 54.6875 
L 17.390625 54.6875 
L 18.109375 58.5 
Q 19.96875 68.171875 24.625 72.078125 
Q 29.296875 75.984375 39.3125 75.984375 
z
" id="DejaVuSans-Oblique-102"/>
      </defs>
      <use transform="translate(0 0.125)" xlink:href="#DejaVuSans-Oblique-112"/>
      <use transform="translate(63.476562 -16.28125)scale(0.7)" xlink:href="#DejaVuSans-Oblique-114"/>
      <use transform="translate(92.255859 -16.28125)scale(0.7)" xlink:href="#DejaVuSans-Oblique-101"/>
      <use transform="translate(135.322266 -16.28125)scale(0.7)" xlink:href="#DejaVuSans-Oblique-102"/>
      <use transform="translate(162.700195 0.125)" xlink:href="#DejaVuSans-40"/>
      <use transform="translate(201.713867 0.125)" xlink:href="#DejaVuSans-Oblique-120"/>
      <use transform="translate(260.893555 0.125)" xlink:href="#DejaVuSans-41"/>
     </g>
    </g>
   </g>
  </g>
 </g>
 <defs>
  <clipPath id="p8fca8f1b56">
   <rect height="152.32" width="233.28607" x="46.64" y="21.72"/>
  </clipPath>
  <clipPath id="p6149d2e45d">
   <rect height="152.32" width="233.28607" x="331.91393" y="21.72"/>
  </clipPath>
 </defs>
</svg>
