<?xml version="1.0" encoding="utf-8" standalone="no"?>
<!DOCTYPE svg PUBLIC "-//W3C//DTD SVG 1.1//EN"
  "http://www.w3.org/Graphics/SVG/1.1/DTD/svg11.dtd">
<!-- Created with matplotlib (https://matplotlib.org/) -->
<svg height="288pt" version="1.1" viewBox="0 0 864 288" width="864pt" xmlns="http://www.w3.org/2000/svg" xmlns:xlink="http://www.w3.org/1999/xlink">
 <metadata>
  <rdf:RDF xmlns:cc="http://creativecommons.org/ns#" xmlns:dc="http://purl.org/dc/elements/1.1/" xmlns:rdf="http://www.w3.org/1999/02/22-rdf-syntax-ns#">
   <cc:Work>
    <dc:type rdf:resource="http://purl.org/dc/dcmitype/StillImage"/>
    <dc:date>2021-01-04T20:53:59.729432</dc:date>
    <dc:format>image/svg+xml</dc:format>
    <dc:creator>
     <cc:Agent>
      <dc:title>Matplotlib v3.3.2, https://matplotlib.org/</dc:title>
     </cc:Agent>
    </dc:creator>
   </cc:Work>
  </rdf:RDF>
 </metadata>
 <defs>
  <style type="text/css">*{stroke-linecap:butt;stroke-linejoin:round;}</style>
 </defs>
 <g id="figure_1">
  <g id="patch_1">
   <path d="M 0 288 
L 864 288 
L 864 0 
L 0 0 
z
" style="fill:#ffffff;"/>
  </g>
  <g id="axes_1">
   <g id="patch_2">
    <path d="M 56.18 246.04 
L 278.079538 246.04 
L 278.079538 25.44 
L 56.18 25.44 
z
" style="fill:#ffffff;"/>
   </g>
   <g id="matplotlib.axis_1">
    <g id="xtick_1">
     <g id="line2d_1">
      <defs>
       <path d="M 0 0 
L 0 3.5 
" id="mce23e08c58" style="stroke:#000000;stroke-width:0.8;"/>
      </defs>
      <g>
       <use style="stroke:#000000;stroke-width:0.8;" x="57.273101" xlink:href="#mce23e08c58" y="246.04"/>
      </g>
     </g>
     <g id="text_1">
      <!-- 0 -->
      <g transform="translate(54.091851 260.638438)scale(0.1 -0.1)">
       <defs>
        <path d="M 31.78125 66.40625 
Q 24.171875 66.40625 20.328125 58.90625 
Q 16.5 51.421875 16.5 36.375 
Q 16.5 21.390625 20.328125 13.890625 
Q 24.171875 6.390625 31.78125 6.390625 
Q 39.453125 6.390625 43.28125 13.890625 
Q 47.125 21.390625 47.125 36.375 
Q 47.125 51.421875 43.28125 58.90625 
Q 39.453125 66.40625 31.78125 66.40625 
z
M 31.78125 74.21875 
Q 44.046875 74.21875 50.515625 64.515625 
Q 56.984375 54.828125 56.984375 36.375 
Q 56.984375 17.96875 50.515625 8.265625 
Q 44.046875 -1.421875 31.78125 -1.421875 
Q 19.53125 -1.421875 13.0625 8.265625 
Q 6.59375 17.96875 6.59375 36.375 
Q 6.59375 54.828125 13.0625 64.515625 
Q 19.53125 74.21875 31.78125 74.21875 
z
" id="DejaVuSans-48"/>
       </defs>
       <use xlink:href="#DejaVuSans-48"/>
      </g>
     </g>
    </g>
    <g id="xtick_2">
     <g id="line2d_2">
      <g>
       <use style="stroke:#000000;stroke-width:0.8;" x="100.997148" xlink:href="#mce23e08c58" y="246.04"/>
      </g>
     </g>
     <g id="text_2">
      <!-- 20 -->
      <g transform="translate(94.634648 260.638438)scale(0.1 -0.1)">
       <defs>
        <path d="M 19.1875 8.296875 
L 53.609375 8.296875 
L 53.609375 0 
L 7.328125 0 
L 7.328125 8.296875 
Q 12.9375 14.109375 22.625 23.890625 
Q 32.328125 33.6875 34.8125 36.53125 
Q 39.546875 41.84375 41.421875 45.53125 
Q 43.3125 49.21875 43.3125 52.78125 
Q 43.3125 58.59375 39.234375 62.25 
Q 35.15625 65.921875 28.609375 65.921875 
Q 23.96875 65.921875 18.8125 64.3125 
Q 13.671875 62.703125 7.8125 59.421875 
L 7.8125 69.390625 
Q 13.765625 71.78125 18.9375 73 
Q 24.125 74.21875 28.421875 74.21875 
Q 39.75 74.21875 46.484375 68.546875 
Q 53.21875 62.890625 53.21875 53.421875 
Q 53.21875 48.921875 51.53125 44.890625 
Q 49.859375 40.875 45.40625 35.40625 
Q 44.1875 33.984375 37.640625 27.21875 
Q 31.109375 20.453125 19.1875 8.296875 
z
" id="DejaVuSans-50"/>
       </defs>
       <use xlink:href="#DejaVuSans-50"/>
       <use x="63.623047" xlink:href="#DejaVuSans-48"/>
      </g>
     </g>
    </g>
    <g id="xtick_3">
     <g id="line2d_3">
      <g>
       <use style="stroke:#000000;stroke-width:0.8;" x="144.721195" xlink:href="#mce23e08c58" y="246.04"/>
      </g>
     </g>
     <g id="text_3">
      <!-- 40 -->
      <g transform="translate(138.358695 260.638438)scale(0.1 -0.1)">
       <defs>
        <path d="M 37.796875 64.3125 
L 12.890625 25.390625 
L 37.796875 25.390625 
z
M 35.203125 72.90625 
L 47.609375 72.90625 
L 47.609375 25.390625 
L 58.015625 25.390625 
L 58.015625 17.1875 
L 47.609375 17.1875 
L 47.609375 0 
L 37.796875 0 
L 37.796875 17.1875 
L 4.890625 17.1875 
L 4.890625 26.703125 
z
" id="DejaVuSans-52"/>
       </defs>
       <use xlink:href="#DejaVuSans-52"/>
       <use x="63.623047" xlink:href="#DejaVuSans-48"/>
      </g>
     </g>
    </g>
    <g id="xtick_4">
     <g id="line2d_4">
      <g>
       <use style="stroke:#000000;stroke-width:0.8;" x="188.445242" xlink:href="#mce23e08c58" y="246.04"/>
      </g>
     </g>
     <g id="text_4">
      <!-- 60 -->
      <g transform="translate(182.082742 260.638438)scale(0.1 -0.1)">
       <defs>
        <path d="M 33.015625 40.375 
Q 26.375 40.375 22.484375 35.828125 
Q 18.609375 31.296875 18.609375 23.390625 
Q 18.609375 15.53125 22.484375 10.953125 
Q 26.375 6.390625 33.015625 6.390625 
Q 39.65625 6.390625 43.53125 10.953125 
Q 47.40625 15.53125 47.40625 23.390625 
Q 47.40625 31.296875 43.53125 35.828125 
Q 39.65625 40.375 33.015625 40.375 
z
M 52.59375 71.296875 
L 52.59375 62.3125 
Q 48.875 64.0625 45.09375 64.984375 
Q 41.3125 65.921875 37.59375 65.921875 
Q 27.828125 65.921875 22.671875 59.328125 
Q 17.53125 52.734375 16.796875 39.40625 
Q 19.671875 43.65625 24.015625 45.921875 
Q 28.375 48.1875 33.59375 48.1875 
Q 44.578125 48.1875 50.953125 41.515625 
Q 57.328125 34.859375 57.328125 23.390625 
Q 57.328125 12.15625 50.6875 5.359375 
Q 44.046875 -1.421875 33.015625 -1.421875 
Q 20.359375 -1.421875 13.671875 8.265625 
Q 6.984375 17.96875 6.984375 36.375 
Q 6.984375 53.65625 15.1875 63.9375 
Q 23.390625 74.21875 37.203125 74.21875 
Q 40.921875 74.21875 44.703125 73.484375 
Q 48.484375 72.75 52.59375 71.296875 
z
" id="DejaVuSans-54"/>
       </defs>
       <use xlink:href="#DejaVuSans-54"/>
       <use x="63.623047" xlink:href="#DejaVuSans-48"/>
      </g>
     </g>
    </g>
    <g id="xtick_5">
     <g id="line2d_5">
      <g>
       <use style="stroke:#000000;stroke-width:0.8;" x="232.169289" xlink:href="#mce23e08c58" y="246.04"/>
      </g>
     </g>
     <g id="text_5">
      <!-- 80 -->
      <g transform="translate(225.806789 260.638438)scale(0.1 -0.1)">
       <defs>
        <path d="M 31.78125 34.625 
Q 24.75 34.625 20.71875 30.859375 
Q 16.703125 27.09375 16.703125 20.515625 
Q 16.703125 13.921875 20.71875 10.15625 
Q 24.75 6.390625 31.78125 6.390625 
Q 38.8125 6.390625 42.859375 10.171875 
Q 46.921875 13.96875 46.921875 20.515625 
Q 46.921875 27.09375 42.890625 30.859375 
Q 38.875 34.625 31.78125 34.625 
z
M 21.921875 38.8125 
Q 15.578125 40.375 12.03125 44.71875 
Q 8.5 49.078125 8.5 55.328125 
Q 8.5 64.0625 14.71875 69.140625 
Q 20.953125 74.21875 31.78125 74.21875 
Q 42.671875 74.21875 48.875 69.140625 
Q 55.078125 64.0625 55.078125 55.328125 
Q 55.078125 49.078125 51.53125 44.71875 
Q 48 40.375 41.703125 38.8125 
Q 48.828125 37.15625 52.796875 32.3125 
Q 56.78125 27.484375 56.78125 20.515625 
Q 56.78125 9.90625 50.3125 4.234375 
Q 43.84375 -1.421875 31.78125 -1.421875 
Q 19.734375 -1.421875 13.25 4.234375 
Q 6.78125 9.90625 6.78125 20.515625 
Q 6.78125 27.484375 10.78125 32.3125 
Q 14.796875 37.15625 21.921875 38.8125 
z
M 18.3125 54.390625 
Q 18.3125 48.734375 21.84375 45.5625 
Q 25.390625 42.390625 31.78125 42.390625 
Q 38.140625 42.390625 41.71875 45.5625 
Q 45.3125 48.734375 45.3125 54.390625 
Q 45.3125 60.0625 41.71875 63.234375 
Q 38.140625 66.40625 31.78125 66.40625 
Q 25.390625 66.40625 21.84375 63.234375 
Q 18.3125 60.0625 18.3125 54.390625 
z
" id="DejaVuSans-56"/>
       </defs>
       <use xlink:href="#DejaVuSans-56"/>
       <use x="63.623047" xlink:href="#DejaVuSans-48"/>
      </g>
     </g>
    </g>
    <g id="xtick_6">
     <g id="line2d_6">
      <g>
       <use style="stroke:#000000;stroke-width:0.8;" x="275.893336" xlink:href="#mce23e08c58" y="246.04"/>
      </g>
     </g>
     <g id="text_6">
      <!-- 100 -->
      <g transform="translate(266.349586 260.638438)scale(0.1 -0.1)">
       <defs>
        <path d="M 12.40625 8.296875 
L 28.515625 8.296875 
L 28.515625 63.921875 
L 10.984375 60.40625 
L 10.984375 69.390625 
L 28.421875 72.90625 
L 38.28125 72.90625 
L 38.28125 8.296875 
L 54.390625 8.296875 
L 54.390625 0 
L 12.40625 0 
z
" id="DejaVuSans-49"/>
       </defs>
       <use xlink:href="#DejaVuSans-49"/>
       <use x="63.623047" xlink:href="#DejaVuSans-48"/>
       <use x="127.246094" xlink:href="#DejaVuSans-48"/>
      </g>
     </g>
    </g>
    <g id="text_7">
     <!-- Iteration ID -->
     <g transform="translate(139.007113 274.316562)scale(0.1 -0.1)">
      <defs>
       <path d="M 9.8125 72.90625 
L 19.671875 72.90625 
L 19.671875 0 
L 9.8125 0 
z
" id="DejaVuSans-73"/>
       <path d="M 18.3125 70.21875 
L 18.3125 54.6875 
L 36.8125 54.6875 
L 36.8125 47.703125 
L 18.3125 47.703125 
L 18.3125 18.015625 
Q 18.3125 11.328125 20.140625 9.421875 
Q 21.96875 7.515625 27.59375 7.515625 
L 36.8125 7.515625 
L 36.8125 0 
L 27.59375 0 
Q 17.1875 0 13.234375 3.875 
Q 9.28125 7.765625 9.28125 18.015625 
L 9.28125 47.703125 
L 2.6875 47.703125 
L 2.6875 54.6875 
L 9.28125 54.6875 
L 9.28125 70.21875 
z
" id="DejaVuSans-116"/>
       <path d="M 56.203125 29.59375 
L 56.203125 25.203125 
L 14.890625 25.203125 
Q 15.484375 15.921875 20.484375 11.0625 
Q 25.484375 6.203125 34.421875 6.203125 
Q 39.59375 6.203125 44.453125 7.46875 
Q 49.3125 8.734375 54.109375 11.28125 
L 54.109375 2.78125 
Q 49.265625 0.734375 44.1875 -0.34375 
Q 39.109375 -1.421875 33.890625 -1.421875 
Q 20.796875 -1.421875 13.15625 6.1875 
Q 5.515625 13.8125 5.515625 26.8125 
Q 5.515625 40.234375 12.765625 48.109375 
Q 20.015625 56 32.328125 56 
Q 43.359375 56 49.78125 48.890625 
Q 56.203125 41.796875 56.203125 29.59375 
z
M 47.21875 32.234375 
Q 47.125 39.59375 43.09375 43.984375 
Q 39.0625 48.390625 32.421875 48.390625 
Q 24.90625 48.390625 20.390625 44.140625 
Q 15.875 39.890625 15.1875 32.171875 
z
" id="DejaVuSans-101"/>
       <path d="M 41.109375 46.296875 
Q 39.59375 47.171875 37.8125 47.578125 
Q 36.03125 48 33.890625 48 
Q 26.265625 48 22.1875 43.046875 
Q 18.109375 38.09375 18.109375 28.8125 
L 18.109375 0 
L 9.078125 0 
L 9.078125 54.6875 
L 18.109375 54.6875 
L 18.109375 46.1875 
Q 20.953125 51.171875 25.484375 53.578125 
Q 30.03125 56 36.53125 56 
Q 37.453125 56 38.578125 55.875 
Q 39.703125 55.765625 41.0625 55.515625 
z
" id="DejaVuSans-114"/>
       <path d="M 34.28125 27.484375 
Q 23.390625 27.484375 19.1875 25 
Q 14.984375 22.515625 14.984375 16.5 
Q 14.984375 11.71875 18.140625 8.90625 
Q 21.296875 6.109375 26.703125 6.109375 
Q 34.1875 6.109375 38.703125 11.40625 
Q 43.21875 16.703125 43.21875 25.484375 
L 43.21875 27.484375 
z
M 52.203125 31.203125 
L 52.203125 0 
L 43.21875 0 
L 43.21875 8.296875 
Q 40.140625 3.328125 35.546875 0.953125 
Q 30.953125 -1.421875 24.3125 -1.421875 
Q 15.921875 -1.421875 10.953125 3.296875 
Q 6 8.015625 6 15.921875 
Q 6 25.140625 12.171875 29.828125 
Q 18.359375 34.515625 30.609375 34.515625 
L 43.21875 34.515625 
L 43.21875 35.40625 
Q 43.21875 41.609375 39.140625 45 
Q 35.0625 48.390625 27.6875 48.390625 
Q 23 48.390625 18.546875 47.265625 
Q 14.109375 46.140625 10.015625 43.890625 
L 10.015625 52.203125 
Q 14.9375 54.109375 19.578125 55.046875 
Q 24.21875 56 28.609375 56 
Q 40.484375 56 46.34375 49.84375 
Q 52.203125 43.703125 52.203125 31.203125 
z
" id="DejaVuSans-97"/>
       <path d="M 9.421875 54.6875 
L 18.40625 54.6875 
L 18.40625 0 
L 9.421875 0 
z
M 9.421875 75.984375 
L 18.40625 75.984375 
L 18.40625 64.59375 
L 9.421875 64.59375 
z
" id="DejaVuSans-105"/>
       <path d="M 30.609375 48.390625 
Q 23.390625 48.390625 19.1875 42.75 
Q 14.984375 37.109375 14.984375 27.296875 
Q 14.984375 17.484375 19.15625 11.84375 
Q 23.34375 6.203125 30.609375 6.203125 
Q 37.796875 6.203125 41.984375 11.859375 
Q 46.1875 17.53125 46.1875 27.296875 
Q 46.1875 37.015625 41.984375 42.703125 
Q 37.796875 48.390625 30.609375 48.390625 
z
M 30.609375 56 
Q 42.328125 56 49.015625 48.375 
Q 55.71875 40.765625 55.71875 27.296875 
Q 55.71875 13.875 49.015625 6.21875 
Q 42.328125 -1.421875 30.609375 -1.421875 
Q 18.84375 -1.421875 12.171875 6.21875 
Q 5.515625 13.875 5.515625 27.296875 
Q 5.515625 40.765625 12.171875 48.375 
Q 18.84375 56 30.609375 56 
z
" id="DejaVuSans-111"/>
       <path d="M 54.890625 33.015625 
L 54.890625 0 
L 45.90625 0 
L 45.90625 32.71875 
Q 45.90625 40.484375 42.875 44.328125 
Q 39.84375 48.1875 33.796875 48.1875 
Q 26.515625 48.1875 22.3125 43.546875 
Q 18.109375 38.921875 18.109375 30.90625 
L 18.109375 0 
L 9.078125 0 
L 9.078125 54.6875 
L 18.109375 54.6875 
L 18.109375 46.1875 
Q 21.34375 51.125 25.703125 53.5625 
Q 30.078125 56 35.796875 56 
Q 45.21875 56 50.046875 50.171875 
Q 54.890625 44.34375 54.890625 33.015625 
z
" id="DejaVuSans-110"/>
       <path id="DejaVuSans-32"/>
       <path d="M 19.671875 64.796875 
L 19.671875 8.109375 
L 31.59375 8.109375 
Q 46.6875 8.109375 53.6875 14.9375 
Q 60.6875 21.78125 60.6875 36.53125 
Q 60.6875 51.171875 53.6875 57.984375 
Q 46.6875 64.796875 31.59375 64.796875 
z
M 9.8125 72.90625 
L 30.078125 72.90625 
Q 51.265625 72.90625 61.171875 64.09375 
Q 71.09375 55.28125 71.09375 36.53125 
Q 71.09375 17.671875 61.125 8.828125 
Q 51.171875 0 30.078125 0 
L 9.8125 0 
z
" id="DejaVuSans-68"/>
      </defs>
      <use xlink:href="#DejaVuSans-73"/>
      <use x="29.492188" xlink:href="#DejaVuSans-116"/>
      <use x="68.701172" xlink:href="#DejaVuSans-101"/>
      <use x="130.224609" xlink:href="#DejaVuSans-114"/>
      <use x="171.337891" xlink:href="#DejaVuSans-97"/>
      <use x="232.617188" xlink:href="#DejaVuSans-116"/>
      <use x="271.826172" xlink:href="#DejaVuSans-105"/>
      <use x="299.609375" xlink:href="#DejaVuSans-111"/>
      <use x="360.791016" xlink:href="#DejaVuSans-110"/>
      <use x="424.169922" xlink:href="#DejaVuSans-32"/>
      <use x="455.957031" xlink:href="#DejaVuSans-73"/>
      <use x="485.449219" xlink:href="#DejaVuSans-68"/>
     </g>
    </g>
   </g>
   <g id="matplotlib.axis_2">
    <g id="ytick_1">
     <g id="line2d_7">
      <defs>
       <path d="M 0 0 
L -3.5 0 
" id="mb2bb99e495" style="stroke:#000000;stroke-width:0.8;"/>
      </defs>
      <g>
       <use style="stroke:#000000;stroke-width:0.8;" x="56.18" xlink:href="#mb2bb99e495" y="212.443771"/>
      </g>
     </g>
     <g id="text_8">
      <!-- −5.5 -->
      <g transform="translate(24.897187 216.242989)scale(0.1 -0.1)">
       <defs>
        <path d="M 10.59375 35.5 
L 73.1875 35.5 
L 73.1875 27.203125 
L 10.59375 27.203125 
z
" id="DejaVuSans-8722"/>
        <path d="M 10.796875 72.90625 
L 49.515625 72.90625 
L 49.515625 64.59375 
L 19.828125 64.59375 
L 19.828125 46.734375 
Q 21.96875 47.46875 24.109375 47.828125 
Q 26.265625 48.1875 28.421875 48.1875 
Q 40.625 48.1875 47.75 41.5 
Q 54.890625 34.8125 54.890625 23.390625 
Q 54.890625 11.625 47.5625 5.09375 
Q 40.234375 -1.421875 26.90625 -1.421875 
Q 22.3125 -1.421875 17.546875 -0.640625 
Q 12.796875 0.140625 7.71875 1.703125 
L 7.71875 11.625 
Q 12.109375 9.234375 16.796875 8.0625 
Q 21.484375 6.890625 26.703125 6.890625 
Q 35.15625 6.890625 40.078125 11.328125 
Q 45.015625 15.765625 45.015625 23.390625 
Q 45.015625 31 40.078125 35.4375 
Q 35.15625 39.890625 26.703125 39.890625 
Q 22.75 39.890625 18.8125 39.015625 
Q 14.890625 38.140625 10.796875 36.28125 
z
" id="DejaVuSans-53"/>
        <path d="M 10.6875 12.40625 
L 21 12.40625 
L 21 0 
L 10.6875 0 
z
" id="DejaVuSans-46"/>
       </defs>
       <use xlink:href="#DejaVuSans-8722"/>
       <use x="83.789062" xlink:href="#DejaVuSans-53"/>
       <use x="147.412109" xlink:href="#DejaVuSans-46"/>
       <use x="179.199219" xlink:href="#DejaVuSans-53"/>
      </g>
     </g>
    </g>
    <g id="ytick_2">
     <g id="line2d_8">
      <g>
       <use style="stroke:#000000;stroke-width:0.8;" x="56.18" xlink:href="#mb2bb99e495" y="176.873312"/>
      </g>
     </g>
     <g id="text_9">
      <!-- −5.0 -->
      <g transform="translate(24.897187 180.672531)scale(0.1 -0.1)">
       <use xlink:href="#DejaVuSans-8722"/>
       <use x="83.789062" xlink:href="#DejaVuSans-53"/>
       <use x="147.412109" xlink:href="#DejaVuSans-46"/>
       <use x="179.199219" xlink:href="#DejaVuSans-48"/>
      </g>
     </g>
    </g>
    <g id="ytick_3">
     <g id="line2d_9">
      <g>
       <use style="stroke:#000000;stroke-width:0.8;" x="56.18" xlink:href="#mb2bb99e495" y="141.302854"/>
      </g>
     </g>
     <g id="text_10">
      <!-- −4.5 -->
      <g transform="translate(24.897187 145.102073)scale(0.1 -0.1)">
       <use xlink:href="#DejaVuSans-8722"/>
       <use x="83.789062" xlink:href="#DejaVuSans-52"/>
       <use x="147.412109" xlink:href="#DejaVuSans-46"/>
       <use x="179.199219" xlink:href="#DejaVuSans-53"/>
      </g>
     </g>
    </g>
    <g id="ytick_4">
     <g id="line2d_10">
      <g>
       <use style="stroke:#000000;stroke-width:0.8;" x="56.18" xlink:href="#mb2bb99e495" y="105.732396"/>
      </g>
     </g>
     <g id="text_11">
      <!-- −4.0 -->
      <g transform="translate(24.897187 109.531614)scale(0.1 -0.1)">
       <use xlink:href="#DejaVuSans-8722"/>
       <use x="83.789062" xlink:href="#DejaVuSans-52"/>
       <use x="147.412109" xlink:href="#DejaVuSans-46"/>
       <use x="179.199219" xlink:href="#DejaVuSans-48"/>
      </g>
     </g>
    </g>
    <g id="ytick_5">
     <g id="line2d_11">
      <g>
       <use style="stroke:#000000;stroke-width:0.8;" x="56.18" xlink:href="#mb2bb99e495" y="70.161937"/>
      </g>
     </g>
     <g id="text_12">
      <!-- −3.5 -->
      <g transform="translate(24.897187 73.961156)scale(0.1 -0.1)">
       <defs>
        <path d="M 40.578125 39.3125 
Q 47.65625 37.796875 51.625 33 
Q 55.609375 28.21875 55.609375 21.1875 
Q 55.609375 10.40625 48.1875 4.484375 
Q 40.765625 -1.421875 27.09375 -1.421875 
Q 22.515625 -1.421875 17.65625 -0.515625 
Q 12.796875 0.390625 7.625 2.203125 
L 7.625 11.71875 
Q 11.71875 9.328125 16.59375 8.109375 
Q 21.484375 6.890625 26.8125 6.890625 
Q 36.078125 6.890625 40.9375 10.546875 
Q 45.796875 14.203125 45.796875 21.1875 
Q 45.796875 27.640625 41.28125 31.265625 
Q 36.765625 34.90625 28.71875 34.90625 
L 20.21875 34.90625 
L 20.21875 43.015625 
L 29.109375 43.015625 
Q 36.375 43.015625 40.234375 45.921875 
Q 44.09375 48.828125 44.09375 54.296875 
Q 44.09375 59.90625 40.109375 62.90625 
Q 36.140625 65.921875 28.71875 65.921875 
Q 24.65625 65.921875 20.015625 65.03125 
Q 15.375 64.15625 9.8125 62.3125 
L 9.8125 71.09375 
Q 15.4375 72.65625 20.34375 73.4375 
Q 25.25 74.21875 29.59375 74.21875 
Q 40.828125 74.21875 47.359375 69.109375 
Q 53.90625 64.015625 53.90625 55.328125 
Q 53.90625 49.265625 50.4375 45.09375 
Q 46.96875 40.921875 40.578125 39.3125 
z
" id="DejaVuSans-51"/>
       </defs>
       <use xlink:href="#DejaVuSans-8722"/>
       <use x="83.789062" xlink:href="#DejaVuSans-51"/>
       <use x="147.412109" xlink:href="#DejaVuSans-46"/>
       <use x="179.199219" xlink:href="#DejaVuSans-53"/>
      </g>
     </g>
    </g>
    <g id="ytick_6">
     <g id="line2d_12">
      <g>
       <use style="stroke:#000000;stroke-width:0.8;" x="56.18" xlink:href="#mb2bb99e495" y="34.591479"/>
      </g>
     </g>
     <g id="text_13">
      <!-- −3.0 -->
      <g transform="translate(24.897187 38.390698)scale(0.1 -0.1)">
       <use xlink:href="#DejaVuSans-8722"/>
       <use x="83.789062" xlink:href="#DejaVuSans-51"/>
       <use x="147.412109" xlink:href="#DejaVuSans-46"/>
       <use x="179.199219" xlink:href="#DejaVuSans-48"/>
      </g>
     </g>
    </g>
    <g id="text_14">
     <!-- Log likelihood -->
     <g transform="translate(18.8175 170.069688)rotate(-90)scale(0.1 -0.1)">
      <defs>
       <path d="M 9.8125 72.90625 
L 19.671875 72.90625 
L 19.671875 8.296875 
L 55.171875 8.296875 
L 55.171875 0 
L 9.8125 0 
z
" id="DejaVuSans-76"/>
       <path d="M 45.40625 27.984375 
Q 45.40625 37.75 41.375 43.109375 
Q 37.359375 48.484375 30.078125 48.484375 
Q 22.859375 48.484375 18.828125 43.109375 
Q 14.796875 37.75 14.796875 27.984375 
Q 14.796875 18.265625 18.828125 12.890625 
Q 22.859375 7.515625 30.078125 7.515625 
Q 37.359375 7.515625 41.375 12.890625 
Q 45.40625 18.265625 45.40625 27.984375 
z
M 54.390625 6.78125 
Q 54.390625 -7.171875 48.1875 -13.984375 
Q 42 -20.796875 29.203125 -20.796875 
Q 24.46875 -20.796875 20.265625 -20.09375 
Q 16.0625 -19.390625 12.109375 -17.921875 
L 12.109375 -9.1875 
Q 16.0625 -11.328125 19.921875 -12.34375 
Q 23.78125 -13.375 27.78125 -13.375 
Q 36.625 -13.375 41.015625 -8.765625 
Q 45.40625 -4.15625 45.40625 5.171875 
L 45.40625 9.625 
Q 42.625 4.78125 38.28125 2.390625 
Q 33.9375 0 27.875 0 
Q 17.828125 0 11.671875 7.65625 
Q 5.515625 15.328125 5.515625 27.984375 
Q 5.515625 40.671875 11.671875 48.328125 
Q 17.828125 56 27.875 56 
Q 33.9375 56 38.28125 53.609375 
Q 42.625 51.21875 45.40625 46.390625 
L 45.40625 54.6875 
L 54.390625 54.6875 
z
" id="DejaVuSans-103"/>
       <path d="M 9.421875 75.984375 
L 18.40625 75.984375 
L 18.40625 0 
L 9.421875 0 
z
" id="DejaVuSans-108"/>
       <path d="M 9.078125 75.984375 
L 18.109375 75.984375 
L 18.109375 31.109375 
L 44.921875 54.6875 
L 56.390625 54.6875 
L 27.390625 29.109375 
L 57.625 0 
L 45.90625 0 
L 18.109375 26.703125 
L 18.109375 0 
L 9.078125 0 
z
" id="DejaVuSans-107"/>
       <path d="M 54.890625 33.015625 
L 54.890625 0 
L 45.90625 0 
L 45.90625 32.71875 
Q 45.90625 40.484375 42.875 44.328125 
Q 39.84375 48.1875 33.796875 48.1875 
Q 26.515625 48.1875 22.3125 43.546875 
Q 18.109375 38.921875 18.109375 30.90625 
L 18.109375 0 
L 9.078125 0 
L 9.078125 75.984375 
L 18.109375 75.984375 
L 18.109375 46.1875 
Q 21.34375 51.125 25.703125 53.5625 
Q 30.078125 56 35.796875 56 
Q 45.21875 56 50.046875 50.171875 
Q 54.890625 44.34375 54.890625 33.015625 
z
" id="DejaVuSans-104"/>
       <path d="M 45.40625 46.390625 
L 45.40625 75.984375 
L 54.390625 75.984375 
L 54.390625 0 
L 45.40625 0 
L 45.40625 8.203125 
Q 42.578125 3.328125 38.25 0.953125 
Q 33.9375 -1.421875 27.875 -1.421875 
Q 17.96875 -1.421875 11.734375 6.484375 
Q 5.515625 14.40625 5.515625 27.296875 
Q 5.515625 40.1875 11.734375 48.09375 
Q 17.96875 56 27.875 56 
Q 33.9375 56 38.25 53.625 
Q 42.578125 51.265625 45.40625 46.390625 
z
M 14.796875 27.296875 
Q 14.796875 17.390625 18.875 11.75 
Q 22.953125 6.109375 30.078125 6.109375 
Q 37.203125 6.109375 41.296875 11.75 
Q 45.40625 17.390625 45.40625 27.296875 
Q 45.40625 37.203125 41.296875 42.84375 
Q 37.203125 48.484375 30.078125 48.484375 
Q 22.953125 48.484375 18.875 42.84375 
Q 14.796875 37.203125 14.796875 27.296875 
z
" id="DejaVuSans-100"/>
      </defs>
      <use xlink:href="#DejaVuSans-76"/>
      <use x="53.962891" xlink:href="#DejaVuSans-111"/>
      <use x="115.144531" xlink:href="#DejaVuSans-103"/>
      <use x="178.621094" xlink:href="#DejaVuSans-32"/>
      <use x="210.408203" xlink:href="#DejaVuSans-108"/>
      <use x="238.191406" xlink:href="#DejaVuSans-105"/>
      <use x="265.974609" xlink:href="#DejaVuSans-107"/>
      <use x="320.259766" xlink:href="#DejaVuSans-101"/>
      <use x="381.783203" xlink:href="#DejaVuSans-108"/>
      <use x="409.566406" xlink:href="#DejaVuSans-105"/>
      <use x="437.349609" xlink:href="#DejaVuSans-104"/>
      <use x="500.728516" xlink:href="#DejaVuSans-111"/>
      <use x="561.910156" xlink:href="#DejaVuSans-111"/>
      <use x="623.091797" xlink:href="#DejaVuSans-100"/>
     </g>
    </g>
    <g id="text_15">
     <!-- 1e4 -->
     <g transform="translate(56.18 22.44)scale(0.1 -0.1)">
      <use xlink:href="#DejaVuSans-49"/>
      <use x="63.623047" xlink:href="#DejaVuSans-101"/>
      <use x="125.146484" xlink:href="#DejaVuSans-52"/>
     </g>
    </g>
   </g>
   <g id="line2d_13">
    <path clip-path="url(#p9759e6f1ec)" d="M 57.273101 236.012727 
L 59.459304 186.207444 
L 61.645506 151.942663 
L 63.831708 127.481455 
L 66.017911 109.625001 
L 68.204113 96.357963 
L 70.390315 86.33346 
L 72.576518 78.629574 
L 74.76272 72.608483 
L 76.948922 67.825184 
L 79.135125 63.966113 
L 81.321327 60.80769 
L 83.507529 58.188369 
L 85.693732 55.989785 
L 87.879934 54.123988 
L 90.066136 52.52472 
L 92.252339 51.141408 
L 94.438541 49.934957 
L 96.624743 48.874795 
L 98.810946 47.936742 
L 100.997148 47.101483 
L 103.18335 46.353436 
L 105.369553 45.679918 
L 107.555755 45.070521 
L 109.741957 44.516636 
L 111.92816 44.01109 
L 114.114362 43.547866 
L 116.300565 43.121885 
L 118.486767 42.728835 
L 120.672969 42.365031 
L 122.859172 42.027311 
L 125.045374 41.712948 
L 127.231576 41.419577 
L 129.417779 41.145138 
L 131.603981 40.887833 
L 133.790183 40.646081 
L 135.976386 40.418491 
L 138.162588 40.203831 
L 140.34879 40.00101 
L 142.534993 39.809056 
L 144.721195 39.627102 
L 146.907397 39.454371 
L 149.0936 39.290164 
L 151.279802 39.133854 
L 153.466004 38.984873 
L 155.652207 38.842709 
L 157.838409 38.706896 
L 160.024611 38.577011 
L 162.210814 38.452668 
L 164.397016 38.333515 
L 166.583218 38.21923 
L 168.769421 38.109517 
L 170.955623 38.004105 
L 173.141826 37.902744 
L 175.328028 37.805206 
L 177.51423 37.711276 
L 179.700433 37.620758 
L 181.886635 37.533472 
L 184.072837 37.449246 
L 186.25904 37.367926 
L 188.445242 37.289364 
L 190.631444 37.213426 
L 192.817647 37.139983 
L 195.003849 37.068917 
L 197.190051 37.000119 
L 199.376254 36.933483 
L 201.562456 36.868912 
L 203.748658 36.806315 
L 205.934861 36.745607 
L 208.121063 36.686706 
L 210.307265 36.629536 
L 212.493468 36.574026 
L 214.67967 36.520107 
L 216.865872 36.467717 
L 219.052075 36.416794 
L 221.238277 36.367282 
L 223.424479 36.319126 
L 225.610682 36.272275 
L 227.796884 36.226679 
L 229.983086 36.182294 
L 232.169289 36.139075 
L 234.355491 36.09698 
L 236.541694 36.055969 
L 238.727896 36.016006 
L 240.914098 35.977052 
L 243.100301 35.939075 
L 245.286503 35.902041 
L 247.472705 35.865919 
L 249.658908 35.830678 
L 251.84511 35.796291 
L 254.031312 35.76273 
L 256.217515 35.729968 
L 258.403717 35.697981 
L 260.589919 35.666744 
L 262.776122 35.636235 
L 264.962324 35.606431 
L 267.148526 35.57731 
L 269.334729 35.548854 
L 271.520931 35.521041 
L 273.707133 35.493853 
L 275.893336 35.467273 
" style="fill:none;stroke:#1f77b4;stroke-linecap:square;"/>
    <defs>
     <path d="M 0 1 
C 0.265203 1 0.51958 0.894634 0.707107 0.707107 
C 0.894634 0.51958 1 0.265203 1 0 
C 1 -0.265203 0.894634 -0.51958 0.707107 -0.707107 
C 0.51958 -0.894634 0.265203 -1 0 -1 
C -0.265203 -1 -0.51958 -0.894634 -0.707107 -0.707107 
C -0.894634 -0.51958 -1 -0.265203 -1 0 
C -1 0.265203 -0.894634 0.51958 -0.707107 0.707107 
C -0.51958 0.894634 -0.265203 1 0 1 
z
" id="mdb9580227e" style="stroke:#1f77b4;"/>
    </defs>
    <g clip-path="url(#p9759e6f1ec)">
     <use style="fill:#1f77b4;stroke:#1f77b4;" x="57.273101" xlink:href="#mdb9580227e" y="236.012727"/>
     <use style="fill:#1f77b4;stroke:#1f77b4;" x="59.459304" xlink:href="#mdb9580227e" y="186.207444"/>
     <use style="fill:#1f77b4;stroke:#1f77b4;" x="61.645506" xlink:href="#mdb9580227e" y="151.942663"/>
     <use style="fill:#1f77b4;stroke:#1f77b4;" x="63.831708" xlink:href="#mdb9580227e" y="127.481455"/>
     <use style="fill:#1f77b4;stroke:#1f77b4;" x="66.017911" xlink:href="#mdb9580227e" y="109.625001"/>
     <use style="fill:#1f77b4;stroke:#1f77b4;" x="68.204113" xlink:href="#mdb9580227e" y="96.357963"/>
     <use style="fill:#1f77b4;stroke:#1f77b4;" x="70.390315" xlink:href="#mdb9580227e" y="86.33346"/>
     <use style="fill:#1f77b4;stroke:#1f77b4;" x="72.576518" xlink:href="#mdb9580227e" y="78.629574"/>
     <use style="fill:#1f77b4;stroke:#1f77b4;" x="74.76272" xlink:href="#mdb9580227e" y="72.608483"/>
     <use style="fill:#1f77b4;stroke:#1f77b4;" x="76.948922" xlink:href="#mdb9580227e" y="67.825184"/>
     <use style="fill:#1f77b4;stroke:#1f77b4;" x="79.135125" xlink:href="#mdb9580227e" y="63.966113"/>
     <use style="fill:#1f77b4;stroke:#1f77b4;" x="81.321327" xlink:href="#mdb9580227e" y="60.80769"/>
     <use style="fill:#1f77b4;stroke:#1f77b4;" x="83.507529" xlink:href="#mdb9580227e" y="58.188369"/>
     <use style="fill:#1f77b4;stroke:#1f77b4;" x="85.693732" xlink:href="#mdb9580227e" y="55.989785"/>
     <use style="fill:#1f77b4;stroke:#1f77b4;" x="87.879934" xlink:href="#mdb9580227e" y="54.123988"/>
     <use style="fill:#1f77b4;stroke:#1f77b4;" x="90.066136" xlink:href="#mdb9580227e" y="52.52472"/>
     <use style="fill:#1f77b4;stroke:#1f77b4;" x="92.252339" xlink:href="#mdb9580227e" y="51.141408"/>
     <use style="fill:#1f77b4;stroke:#1f77b4;" x="94.438541" xlink:href="#mdb9580227e" y="49.934957"/>
     <use style="fill:#1f77b4;stroke:#1f77b4;" x="96.624743" xlink:href="#mdb9580227e" y="48.874795"/>
     <use style="fill:#1f77b4;stroke:#1f77b4;" x="98.810946" xlink:href="#mdb9580227e" y="47.936742"/>
     <use style="fill:#1f77b4;stroke:#1f77b4;" x="100.997148" xlink:href="#mdb9580227e" y="47.101483"/>
     <use style="fill:#1f77b4;stroke:#1f77b4;" x="103.18335" xlink:href="#mdb9580227e" y="46.353436"/>
     <use style="fill:#1f77b4;stroke:#1f77b4;" x="105.369553" xlink:href="#mdb9580227e" y="45.679918"/>
     <use style="fill:#1f77b4;stroke:#1f77b4;" x="107.555755" xlink:href="#mdb9580227e" y="45.070521"/>
     <use style="fill:#1f77b4;stroke:#1f77b4;" x="109.741957" xlink:href="#mdb9580227e" y="44.516636"/>
     <use style="fill:#1f77b4;stroke:#1f77b4;" x="111.92816" xlink:href="#mdb9580227e" y="44.01109"/>
     <use style="fill:#1f77b4;stroke:#1f77b4;" x="114.114362" xlink:href="#mdb9580227e" y="43.547866"/>
     <use style="fill:#1f77b4;stroke:#1f77b4;" x="116.300565" xlink:href="#mdb9580227e" y="43.121885"/>
     <use style="fill:#1f77b4;stroke:#1f77b4;" x="118.486767" xlink:href="#mdb9580227e" y="42.728835"/>
     <use style="fill:#1f77b4;stroke:#1f77b4;" x="120.672969" xlink:href="#mdb9580227e" y="42.365031"/>
     <use style="fill:#1f77b4;stroke:#1f77b4;" x="122.859172" xlink:href="#mdb9580227e" y="42.027311"/>
     <use style="fill:#1f77b4;stroke:#1f77b4;" x="125.045374" xlink:href="#mdb9580227e" y="41.712948"/>
     <use style="fill:#1f77b4;stroke:#1f77b4;" x="127.231576" xlink:href="#mdb9580227e" y="41.419577"/>
     <use style="fill:#1f77b4;stroke:#1f77b4;" x="129.417779" xlink:href="#mdb9580227e" y="41.145138"/>
     <use style="fill:#1f77b4;stroke:#1f77b4;" x="131.603981" xlink:href="#mdb9580227e" y="40.887833"/>
     <use style="fill:#1f77b4;stroke:#1f77b4;" x="133.790183" xlink:href="#mdb9580227e" y="40.646081"/>
     <use style="fill:#1f77b4;stroke:#1f77b4;" x="135.976386" xlink:href="#mdb9580227e" y="40.418491"/>
     <use style="fill:#1f77b4;stroke:#1f77b4;" x="138.162588" xlink:href="#mdb9580227e" y="40.203831"/>
     <use style="fill:#1f77b4;stroke:#1f77b4;" x="140.34879" xlink:href="#mdb9580227e" y="40.00101"/>
     <use style="fill:#1f77b4;stroke:#1f77b4;" x="142.534993" xlink:href="#mdb9580227e" y="39.809056"/>
     <use style="fill:#1f77b4;stroke:#1f77b4;" x="144.721195" xlink:href="#mdb9580227e" y="39.627102"/>
     <use style="fill:#1f77b4;stroke:#1f77b4;" x="146.907397" xlink:href="#mdb9580227e" y="39.454371"/>
     <use style="fill:#1f77b4;stroke:#1f77b4;" x="149.0936" xlink:href="#mdb9580227e" y="39.290164"/>
     <use style="fill:#1f77b4;stroke:#1f77b4;" x="151.279802" xlink:href="#mdb9580227e" y="39.133854"/>
     <use style="fill:#1f77b4;stroke:#1f77b4;" x="153.466004" xlink:href="#mdb9580227e" y="38.984873"/>
     <use style="fill:#1f77b4;stroke:#1f77b4;" x="155.652207" xlink:href="#mdb9580227e" y="38.842709"/>
     <use style="fill:#1f77b4;stroke:#1f77b4;" x="157.838409" xlink:href="#mdb9580227e" y="38.706896"/>
     <use style="fill:#1f77b4;stroke:#1f77b4;" x="160.024611" xlink:href="#mdb9580227e" y="38.577011"/>
     <use style="fill:#1f77b4;stroke:#1f77b4;" x="162.210814" xlink:href="#mdb9580227e" y="38.452668"/>
     <use style="fill:#1f77b4;stroke:#1f77b4;" x="164.397016" xlink:href="#mdb9580227e" y="38.333515"/>
     <use style="fill:#1f77b4;stroke:#1f77b4;" x="166.583218" xlink:href="#mdb9580227e" y="38.21923"/>
     <use style="fill:#1f77b4;stroke:#1f77b4;" x="168.769421" xlink:href="#mdb9580227e" y="38.109517"/>
     <use style="fill:#1f77b4;stroke:#1f77b4;" x="170.955623" xlink:href="#mdb9580227e" y="38.004105"/>
     <use style="fill:#1f77b4;stroke:#1f77b4;" x="173.141826" xlink:href="#mdb9580227e" y="37.902744"/>
     <use style="fill:#1f77b4;stroke:#1f77b4;" x="175.328028" xlink:href="#mdb9580227e" y="37.805206"/>
     <use style="fill:#1f77b4;stroke:#1f77b4;" x="177.51423" xlink:href="#mdb9580227e" y="37.711276"/>
     <use style="fill:#1f77b4;stroke:#1f77b4;" x="179.700433" xlink:href="#mdb9580227e" y="37.620758"/>
     <use style="fill:#1f77b4;stroke:#1f77b4;" x="181.886635" xlink:href="#mdb9580227e" y="37.533472"/>
     <use style="fill:#1f77b4;stroke:#1f77b4;" x="184.072837" xlink:href="#mdb9580227e" y="37.449246"/>
     <use style="fill:#1f77b4;stroke:#1f77b4;" x="186.25904" xlink:href="#mdb9580227e" y="37.367926"/>
     <use style="fill:#1f77b4;stroke:#1f77b4;" x="188.445242" xlink:href="#mdb9580227e" y="37.289364"/>
     <use style="fill:#1f77b4;stroke:#1f77b4;" x="190.631444" xlink:href="#mdb9580227e" y="37.213426"/>
     <use style="fill:#1f77b4;stroke:#1f77b4;" x="192.817647" xlink:href="#mdb9580227e" y="37.139983"/>
     <use style="fill:#1f77b4;stroke:#1f77b4;" x="195.003849" xlink:href="#mdb9580227e" y="37.068917"/>
     <use style="fill:#1f77b4;stroke:#1f77b4;" x="197.190051" xlink:href="#mdb9580227e" y="37.000119"/>
     <use style="fill:#1f77b4;stroke:#1f77b4;" x="199.376254" xlink:href="#mdb9580227e" y="36.933483"/>
     <use style="fill:#1f77b4;stroke:#1f77b4;" x="201.562456" xlink:href="#mdb9580227e" y="36.868912"/>
     <use style="fill:#1f77b4;stroke:#1f77b4;" x="203.748658" xlink:href="#mdb9580227e" y="36.806315"/>
     <use style="fill:#1f77b4;stroke:#1f77b4;" x="205.934861" xlink:href="#mdb9580227e" y="36.745607"/>
     <use style="fill:#1f77b4;stroke:#1f77b4;" x="208.121063" xlink:href="#mdb9580227e" y="36.686706"/>
     <use style="fill:#1f77b4;stroke:#1f77b4;" x="210.307265" xlink:href="#mdb9580227e" y="36.629536"/>
     <use style="fill:#1f77b4;stroke:#1f77b4;" x="212.493468" xlink:href="#mdb9580227e" y="36.574026"/>
     <use style="fill:#1f77b4;stroke:#1f77b4;" x="214.67967" xlink:href="#mdb9580227e" y="36.520107"/>
     <use style="fill:#1f77b4;stroke:#1f77b4;" x="216.865872" xlink:href="#mdb9580227e" y="36.467717"/>
     <use style="fill:#1f77b4;stroke:#1f77b4;" x="219.052075" xlink:href="#mdb9580227e" y="36.416794"/>
     <use style="fill:#1f77b4;stroke:#1f77b4;" x="221.238277" xlink:href="#mdb9580227e" y="36.367282"/>
     <use style="fill:#1f77b4;stroke:#1f77b4;" x="223.424479" xlink:href="#mdb9580227e" y="36.319126"/>
     <use style="fill:#1f77b4;stroke:#1f77b4;" x="225.610682" xlink:href="#mdb9580227e" y="36.272275"/>
     <use style="fill:#1f77b4;stroke:#1f77b4;" x="227.796884" xlink:href="#mdb9580227e" y="36.226679"/>
     <use style="fill:#1f77b4;stroke:#1f77b4;" x="229.983086" xlink:href="#mdb9580227e" y="36.182294"/>
     <use style="fill:#1f77b4;stroke:#1f77b4;" x="232.169289" xlink:href="#mdb9580227e" y="36.139075"/>
     <use style="fill:#1f77b4;stroke:#1f77b4;" x="234.355491" xlink:href="#mdb9580227e" y="36.09698"/>
     <use style="fill:#1f77b4;stroke:#1f77b4;" x="236.541694" xlink:href="#mdb9580227e" y="36.055969"/>
     <use style="fill:#1f77b4;stroke:#1f77b4;" x="238.727896" xlink:href="#mdb9580227e" y="36.016006"/>
     <use style="fill:#1f77b4;stroke:#1f77b4;" x="240.914098" xlink:href="#mdb9580227e" y="35.977052"/>
     <use style="fill:#1f77b4;stroke:#1f77b4;" x="243.100301" xlink:href="#mdb9580227e" y="35.939075"/>
     <use style="fill:#1f77b4;stroke:#1f77b4;" x="245.286503" xlink:href="#mdb9580227e" y="35.902041"/>
     <use style="fill:#1f77b4;stroke:#1f77b4;" x="247.472705" xlink:href="#mdb9580227e" y="35.865919"/>
     <use style="fill:#1f77b4;stroke:#1f77b4;" x="249.658908" xlink:href="#mdb9580227e" y="35.830678"/>
     <use style="fill:#1f77b4;stroke:#1f77b4;" x="251.84511" xlink:href="#mdb9580227e" y="35.796291"/>
     <use style="fill:#1f77b4;stroke:#1f77b4;" x="254.031312" xlink:href="#mdb9580227e" y="35.76273"/>
     <use style="fill:#1f77b4;stroke:#1f77b4;" x="256.217515" xlink:href="#mdb9580227e" y="35.729968"/>
     <use style="fill:#1f77b4;stroke:#1f77b4;" x="258.403717" xlink:href="#mdb9580227e" y="35.697981"/>
     <use style="fill:#1f77b4;stroke:#1f77b4;" x="260.589919" xlink:href="#mdb9580227e" y="35.666744"/>
     <use style="fill:#1f77b4;stroke:#1f77b4;" x="262.776122" xlink:href="#mdb9580227e" y="35.636235"/>
     <use style="fill:#1f77b4;stroke:#1f77b4;" x="264.962324" xlink:href="#mdb9580227e" y="35.606431"/>
     <use style="fill:#1f77b4;stroke:#1f77b4;" x="267.148526" xlink:href="#mdb9580227e" y="35.57731"/>
     <use style="fill:#1f77b4;stroke:#1f77b4;" x="269.334729" xlink:href="#mdb9580227e" y="35.548854"/>
     <use style="fill:#1f77b4;stroke:#1f77b4;" x="271.520931" xlink:href="#mdb9580227e" y="35.521041"/>
     <use style="fill:#1f77b4;stroke:#1f77b4;" x="273.707133" xlink:href="#mdb9580227e" y="35.493853"/>
     <use style="fill:#1f77b4;stroke:#1f77b4;" x="275.893336" xlink:href="#mdb9580227e" y="35.467273"/>
    </g>
   </g>
   <g id="patch_3">
    <path d="M 56.18 246.04 
L 56.18 25.44 
" style="fill:none;stroke:#000000;stroke-linecap:square;stroke-linejoin:miter;stroke-width:0.8;"/>
   </g>
   <g id="patch_4">
    <path d="M 278.079538 246.04 
L 278.079538 25.44 
" style="fill:none;stroke:#000000;stroke-linecap:square;stroke-linejoin:miter;stroke-width:0.8;"/>
   </g>
   <g id="patch_5">
    <path d="M 56.18 246.04 
L 278.079538 246.04 
" style="fill:none;stroke:#000000;stroke-linecap:square;stroke-linejoin:miter;stroke-width:0.8;"/>
   </g>
   <g id="patch_6">
    <path d="M 56.18 25.44 
L 278.079538 25.44 
" style="fill:none;stroke:#000000;stroke-linecap:square;stroke-linejoin:miter;stroke-width:0.8;"/>
   </g>
   <g id="text_16">
    <!-- Exceed 100 iteration, stop -->
    <g transform="translate(88.015082 19.44)scale(0.12 -0.12)">
     <defs>
      <path d="M 9.8125 72.90625 
L 55.90625 72.90625 
L 55.90625 64.59375 
L 19.671875 64.59375 
L 19.671875 43.015625 
L 54.390625 43.015625 
L 54.390625 34.71875 
L 19.671875 34.71875 
L 19.671875 8.296875 
L 56.78125 8.296875 
L 56.78125 0 
L 9.8125 0 
z
" id="DejaVuSans-69"/>
      <path d="M 54.890625 54.6875 
L 35.109375 28.078125 
L 55.90625 0 
L 45.3125 0 
L 29.390625 21.484375 
L 13.484375 0 
L 2.875 0 
L 24.125 28.609375 
L 4.6875 54.6875 
L 15.28125 54.6875 
L 29.78125 35.203125 
L 44.28125 54.6875 
z
" id="DejaVuSans-120"/>
      <path d="M 48.78125 52.59375 
L 48.78125 44.1875 
Q 44.96875 46.296875 41.140625 47.34375 
Q 37.3125 48.390625 33.40625 48.390625 
Q 24.65625 48.390625 19.8125 42.84375 
Q 14.984375 37.3125 14.984375 27.296875 
Q 14.984375 17.28125 19.8125 11.734375 
Q 24.65625 6.203125 33.40625 6.203125 
Q 37.3125 6.203125 41.140625 7.25 
Q 44.96875 8.296875 48.78125 10.40625 
L 48.78125 2.09375 
Q 45.015625 0.34375 40.984375 -0.53125 
Q 36.96875 -1.421875 32.421875 -1.421875 
Q 20.0625 -1.421875 12.78125 6.34375 
Q 5.515625 14.109375 5.515625 27.296875 
Q 5.515625 40.671875 12.859375 48.328125 
Q 20.21875 56 33.015625 56 
Q 37.15625 56 41.109375 55.140625 
Q 45.0625 54.296875 48.78125 52.59375 
z
" id="DejaVuSans-99"/>
      <path d="M 11.71875 12.40625 
L 22.015625 12.40625 
L 22.015625 4 
L 14.015625 -11.625 
L 7.71875 -11.625 
L 11.71875 4 
z
" id="DejaVuSans-44"/>
      <path d="M 44.28125 53.078125 
L 44.28125 44.578125 
Q 40.484375 46.53125 36.375 47.5 
Q 32.28125 48.484375 27.875 48.484375 
Q 21.1875 48.484375 17.84375 46.4375 
Q 14.5 44.390625 14.5 40.28125 
Q 14.5 37.15625 16.890625 35.375 
Q 19.28125 33.59375 26.515625 31.984375 
L 29.59375 31.296875 
Q 39.15625 29.25 43.1875 25.515625 
Q 47.21875 21.78125 47.21875 15.09375 
Q 47.21875 7.46875 41.1875 3.015625 
Q 35.15625 -1.421875 24.609375 -1.421875 
Q 20.21875 -1.421875 15.453125 -0.5625 
Q 10.6875 0.296875 5.421875 2 
L 5.421875 11.28125 
Q 10.40625 8.6875 15.234375 7.390625 
Q 20.0625 6.109375 24.8125 6.109375 
Q 31.15625 6.109375 34.5625 8.28125 
Q 37.984375 10.453125 37.984375 14.40625 
Q 37.984375 18.0625 35.515625 20.015625 
Q 33.0625 21.96875 24.703125 23.78125 
L 21.578125 24.515625 
Q 13.234375 26.265625 9.515625 29.90625 
Q 5.8125 33.546875 5.8125 39.890625 
Q 5.8125 47.609375 11.28125 51.796875 
Q 16.75 56 26.8125 56 
Q 31.78125 56 36.171875 55.265625 
Q 40.578125 54.546875 44.28125 53.078125 
z
" id="DejaVuSans-115"/>
      <path d="M 18.109375 8.203125 
L 18.109375 -20.796875 
L 9.078125 -20.796875 
L 9.078125 54.6875 
L 18.109375 54.6875 
L 18.109375 46.390625 
Q 20.953125 51.265625 25.265625 53.625 
Q 29.59375 56 35.59375 56 
Q 45.5625 56 51.78125 48.09375 
Q 58.015625 40.1875 58.015625 27.296875 
Q 58.015625 14.40625 51.78125 6.484375 
Q 45.5625 -1.421875 35.59375 -1.421875 
Q 29.59375 -1.421875 25.265625 0.953125 
Q 20.953125 3.328125 18.109375 8.203125 
z
M 48.6875 27.296875 
Q 48.6875 37.203125 44.609375 42.84375 
Q 40.53125 48.484375 33.40625 48.484375 
Q 26.265625 48.484375 22.1875 42.84375 
Q 18.109375 37.203125 18.109375 27.296875 
Q 18.109375 17.390625 22.1875 11.75 
Q 26.265625 6.109375 33.40625 6.109375 
Q 40.53125 6.109375 44.609375 11.75 
Q 48.6875 17.390625 48.6875 27.296875 
z
" id="DejaVuSans-112"/>
     </defs>
     <use xlink:href="#DejaVuSans-69"/>
     <use x="63.183594" xlink:href="#DejaVuSans-120"/>
     <use x="120.613281" xlink:href="#DejaVuSans-99"/>
     <use x="175.59375" xlink:href="#DejaVuSans-101"/>
     <use x="237.117188" xlink:href="#DejaVuSans-101"/>
     <use x="298.640625" xlink:href="#DejaVuSans-100"/>
     <use x="362.117188" xlink:href="#DejaVuSans-32"/>
     <use x="393.904297" xlink:href="#DejaVuSans-49"/>
     <use x="457.527344" xlink:href="#DejaVuSans-48"/>
     <use x="521.150391" xlink:href="#DejaVuSans-48"/>
     <use x="584.773438" xlink:href="#DejaVuSans-32"/>
     <use x="616.560547" xlink:href="#DejaVuSans-105"/>
     <use x="644.34375" xlink:href="#DejaVuSans-116"/>
     <use x="683.552734" xlink:href="#DejaVuSans-101"/>
     <use x="745.076172" xlink:href="#DejaVuSans-114"/>
     <use x="786.189453" xlink:href="#DejaVuSans-97"/>
     <use x="847.46875" xlink:href="#DejaVuSans-116"/>
     <use x="886.677734" xlink:href="#DejaVuSans-105"/>
     <use x="914.460938" xlink:href="#DejaVuSans-111"/>
     <use x="975.642578" xlink:href="#DejaVuSans-110"/>
     <use x="1039.021484" xlink:href="#DejaVuSans-44"/>
     <use x="1070.808594" xlink:href="#DejaVuSans-32"/>
     <use x="1102.595703" xlink:href="#DejaVuSans-115"/>
     <use x="1154.695312" xlink:href="#DejaVuSans-116"/>
     <use x="1193.904297" xlink:href="#DejaVuSans-111"/>
     <use x="1255.085938" xlink:href="#DejaVuSans-112"/>
    </g>
   </g>
   <g id="legend_1">
    <g id="patch_7">
     <path d="M 63.18 241.04 
L 146.28 241.04 
Q 148.28 241.04 148.28 239.04 
L 148.28 225.361875 
Q 148.28 223.361875 146.28 223.361875 
L 63.18 223.361875 
Q 61.18 223.361875 61.18 225.361875 
L 61.18 239.04 
Q 61.18 241.04 63.18 241.04 
z
" style="fill:#ffffff;opacity:0.8;stroke:#cccccc;stroke-linejoin:miter;"/>
    </g>
    <g id="line2d_14">
     <path d="M 65.18 231.460312 
L 85.18 231.460312 
" style="fill:none;stroke:#1f77b4;stroke-linecap:square;"/>
    </g>
    <g id="line2d_15">
     <g>
      <use style="fill:#1f77b4;stroke:#1f77b4;" x="75.18" xlink:href="#mdb9580227e" y="231.460312"/>
     </g>
    </g>
    <g id="text_17">
     <!-- $x^{[0]}=45.0$ -->
     <g transform="translate(93.18 234.960312)scale(0.1 -0.1)">
      <defs>
       <path d="M 60.015625 54.6875 
L 34.90625 27.875 
L 50.296875 0 
L 39.984375 0 
L 28.421875 21.6875 
L 8.296875 0 
L -2.59375 0 
L 24.3125 28.8125 
L 10.015625 54.6875 
L 20.3125 54.6875 
L 30.8125 34.90625 
L 49.125 54.6875 
z
" id="DejaVuSans-Oblique-120"/>
       <path d="M 8.59375 75.984375 
L 29.296875 75.984375 
L 29.296875 69 
L 17.578125 69 
L 17.578125 -6.203125 
L 29.296875 -6.203125 
L 29.296875 -13.1875 
L 8.59375 -13.1875 
z
" id="DejaVuSans-91"/>
       <path d="M 30.421875 75.984375 
L 30.421875 -13.1875 
L 9.71875 -13.1875 
L 9.71875 -6.203125 
L 21.390625 -6.203125 
L 21.390625 69 
L 9.71875 69 
L 9.71875 75.984375 
z
" id="DejaVuSans-93"/>
       <path d="M 10.59375 45.40625 
L 73.1875 45.40625 
L 73.1875 37.203125 
L 10.59375 37.203125 
z
M 10.59375 25.484375 
L 73.1875 25.484375 
L 73.1875 17.1875 
L 10.59375 17.1875 
z
" id="DejaVuSans-61"/>
      </defs>
      <use transform="translate(0 0.529687)" xlink:href="#DejaVuSans-Oblique-120"/>
      <use transform="translate(63.645833 38.810937)scale(0.7)" xlink:href="#DejaVuSans-91"/>
      <use transform="translate(90.955404 38.810937)scale(0.7)" xlink:href="#DejaVuSans-48"/>
      <use transform="translate(135.491536 38.810937)scale(0.7)" xlink:href="#DejaVuSans-93"/>
      <use transform="translate(185.017904 0.529687)" xlink:href="#DejaVuSans-61"/>
      <use transform="translate(288.289388 0.529687)" xlink:href="#DejaVuSans-52"/>
      <use transform="translate(351.912435 0.529687)" xlink:href="#DejaVuSans-53"/>
      <use transform="translate(415.535482 0.529687)" xlink:href="#DejaVuSans-46"/>
      <use transform="translate(447.322591 0.529687)" xlink:href="#DejaVuSans-48"/>
     </g>
    </g>
   </g>
  </g>
  <g id="axes_2">
   <g id="patch_8">
    <path d="M 343.740231 246.04 
L 565.639769 246.04 
L 565.639769 25.44 
L 343.740231 25.44 
z
" style="fill:#ffffff;"/>
   </g>
   <g id="matplotlib.axis_3">
    <g id="xtick_7">
     <g id="line2d_16">
      <g>
       <use style="stroke:#000000;stroke-width:0.8;" x="353.826574" xlink:href="#mce23e08c58" y="246.04"/>
      </g>
     </g>
     <g id="text_18">
      <!-- 30 -->
      <g transform="translate(347.464074 260.638438)scale(0.1 -0.1)">
       <use xlink:href="#DejaVuSans-51"/>
       <use x="63.623047" xlink:href="#DejaVuSans-48"/>
      </g>
     </g>
    </g>
    <g id="xtick_8">
     <g id="line2d_17">
      <g>
       <use style="stroke:#000000;stroke-width:0.8;" x="404.258287" xlink:href="#mce23e08c58" y="246.04"/>
      </g>
     </g>
     <g id="text_19">
      <!-- 40 -->
      <g transform="translate(397.895787 260.638438)scale(0.1 -0.1)">
       <use xlink:href="#DejaVuSans-52"/>
       <use x="63.623047" xlink:href="#DejaVuSans-48"/>
      </g>
     </g>
    </g>
    <g id="xtick_9">
     <g id="line2d_18">
      <g>
       <use style="stroke:#000000;stroke-width:0.8;" x="454.69" xlink:href="#mce23e08c58" y="246.04"/>
      </g>
     </g>
     <g id="text_20">
      <!-- 50 -->
      <g transform="translate(448.3275 260.638438)scale(0.1 -0.1)">
       <use xlink:href="#DejaVuSans-53"/>
       <use x="63.623047" xlink:href="#DejaVuSans-48"/>
      </g>
     </g>
    </g>
    <g id="xtick_10">
     <g id="line2d_19">
      <g>
       <use style="stroke:#000000;stroke-width:0.8;" x="505.121713" xlink:href="#mce23e08c58" y="246.04"/>
      </g>
     </g>
     <g id="text_21">
      <!-- 60 -->
      <g transform="translate(498.759213 260.638438)scale(0.1 -0.1)">
       <use xlink:href="#DejaVuSans-54"/>
       <use x="63.623047" xlink:href="#DejaVuSans-48"/>
      </g>
     </g>
    </g>
    <g id="xtick_11">
     <g id="line2d_20">
      <g>
       <use style="stroke:#000000;stroke-width:0.8;" x="555.553426" xlink:href="#mce23e08c58" y="246.04"/>
      </g>
     </g>
     <g id="text_22">
      <!-- 70 -->
      <g transform="translate(549.190926 260.638438)scale(0.1 -0.1)">
       <defs>
        <path d="M 8.203125 72.90625 
L 55.078125 72.90625 
L 55.078125 68.703125 
L 28.609375 0 
L 18.3125 0 
L 43.21875 64.59375 
L 8.203125 64.59375 
z
" id="DejaVuSans-55"/>
       </defs>
       <use xlink:href="#DejaVuSans-55"/>
       <use x="63.623047" xlink:href="#DejaVuSans-48"/>
      </g>
     </g>
    </g>
    <g id="text_23">
     <!-- x position -->
     <g transform="translate(430.336875 274.316562)scale(0.1 -0.1)">
      <use xlink:href="#DejaVuSans-120"/>
      <use x="59.179688" xlink:href="#DejaVuSans-32"/>
      <use x="90.966797" xlink:href="#DejaVuSans-112"/>
      <use x="154.443359" xlink:href="#DejaVuSans-111"/>
      <use x="215.625" xlink:href="#DejaVuSans-115"/>
      <use x="267.724609" xlink:href="#DejaVuSans-105"/>
      <use x="295.507812" xlink:href="#DejaVuSans-116"/>
      <use x="334.716797" xlink:href="#DejaVuSans-105"/>
      <use x="362.5" xlink:href="#DejaVuSans-111"/>
      <use x="423.681641" xlink:href="#DejaVuSans-110"/>
     </g>
    </g>
   </g>
   <g id="matplotlib.axis_4">
    <g id="ytick_7">
     <g id="line2d_21">
      <g>
       <use style="stroke:#000000;stroke-width:0.8;" x="343.740231" xlink:href="#mb2bb99e495" y="236.012727"/>
      </g>
     </g>
     <g id="text_24">
      <!-- 0.00 -->
      <g transform="translate(314.474606 239.811946)scale(0.1 -0.1)">
       <use xlink:href="#DejaVuSans-48"/>
       <use x="63.623047" xlink:href="#DejaVuSans-46"/>
       <use x="95.410156" xlink:href="#DejaVuSans-48"/>
       <use x="159.033203" xlink:href="#DejaVuSans-48"/>
      </g>
     </g>
    </g>
    <g id="ytick_8">
     <g id="line2d_22">
      <g>
       <use style="stroke:#000000;stroke-width:0.8;" x="343.740231" xlink:href="#mb2bb99e495" y="210.878082"/>
      </g>
     </g>
     <g id="text_25">
      <!-- 0.05 -->
      <g transform="translate(314.474606 214.677301)scale(0.1 -0.1)">
       <use xlink:href="#DejaVuSans-48"/>
       <use x="63.623047" xlink:href="#DejaVuSans-46"/>
       <use x="95.410156" xlink:href="#DejaVuSans-48"/>
       <use x="159.033203" xlink:href="#DejaVuSans-53"/>
      </g>
     </g>
    </g>
    <g id="ytick_9">
     <g id="line2d_23">
      <g>
       <use style="stroke:#000000;stroke-width:0.8;" x="343.740231" xlink:href="#mb2bb99e495" y="185.743437"/>
      </g>
     </g>
     <g id="text_26">
      <!-- 0.10 -->
      <g transform="translate(314.474606 189.542655)scale(0.1 -0.1)">
       <use xlink:href="#DejaVuSans-48"/>
       <use x="63.623047" xlink:href="#DejaVuSans-46"/>
       <use x="95.410156" xlink:href="#DejaVuSans-49"/>
       <use x="159.033203" xlink:href="#DejaVuSans-48"/>
      </g>
     </g>
    </g>
    <g id="ytick_10">
     <g id="line2d_24">
      <g>
       <use style="stroke:#000000;stroke-width:0.8;" x="343.740231" xlink:href="#mb2bb99e495" y="160.608791"/>
      </g>
     </g>
     <g id="text_27">
      <!-- 0.15 -->
      <g transform="translate(314.474606 164.40801)scale(0.1 -0.1)">
       <use xlink:href="#DejaVuSans-48"/>
       <use x="63.623047" xlink:href="#DejaVuSans-46"/>
       <use x="95.410156" xlink:href="#DejaVuSans-49"/>
       <use x="159.033203" xlink:href="#DejaVuSans-53"/>
      </g>
     </g>
    </g>
    <g id="ytick_11">
     <g id="line2d_25">
      <g>
       <use style="stroke:#000000;stroke-width:0.8;" x="343.740231" xlink:href="#mb2bb99e495" y="135.474146"/>
      </g>
     </g>
     <g id="text_28">
      <!-- 0.20 -->
      <g transform="translate(314.474606 139.273365)scale(0.1 -0.1)">
       <use xlink:href="#DejaVuSans-48"/>
       <use x="63.623047" xlink:href="#DejaVuSans-46"/>
       <use x="95.410156" xlink:href="#DejaVuSans-50"/>
       <use x="159.033203" xlink:href="#DejaVuSans-48"/>
      </g>
     </g>
    </g>
    <g id="ytick_12">
     <g id="line2d_26">
      <g>
       <use style="stroke:#000000;stroke-width:0.8;" x="343.740231" xlink:href="#mb2bb99e495" y="110.3395"/>
      </g>
     </g>
     <g id="text_29">
      <!-- 0.25 -->
      <g transform="translate(314.474606 114.138719)scale(0.1 -0.1)">
       <use xlink:href="#DejaVuSans-48"/>
       <use x="63.623047" xlink:href="#DejaVuSans-46"/>
       <use x="95.410156" xlink:href="#DejaVuSans-50"/>
       <use x="159.033203" xlink:href="#DejaVuSans-53"/>
      </g>
     </g>
    </g>
    <g id="ytick_13">
     <g id="line2d_27">
      <g>
       <use style="stroke:#000000;stroke-width:0.8;" x="343.740231" xlink:href="#mb2bb99e495" y="85.204855"/>
      </g>
     </g>
     <g id="text_30">
      <!-- 0.30 -->
      <g transform="translate(314.474606 89.004074)scale(0.1 -0.1)">
       <use xlink:href="#DejaVuSans-48"/>
       <use x="63.623047" xlink:href="#DejaVuSans-46"/>
       <use x="95.410156" xlink:href="#DejaVuSans-51"/>
       <use x="159.033203" xlink:href="#DejaVuSans-48"/>
      </g>
     </g>
    </g>
    <g id="ytick_14">
     <g id="line2d_28">
      <g>
       <use style="stroke:#000000;stroke-width:0.8;" x="343.740231" xlink:href="#mb2bb99e495" y="60.07021"/>
      </g>
     </g>
     <g id="text_31">
      <!-- 0.35 -->
      <g transform="translate(314.474606 63.869428)scale(0.1 -0.1)">
       <use xlink:href="#DejaVuSans-48"/>
       <use x="63.623047" xlink:href="#DejaVuSans-46"/>
       <use x="95.410156" xlink:href="#DejaVuSans-51"/>
       <use x="159.033203" xlink:href="#DejaVuSans-53"/>
      </g>
     </g>
    </g>
    <g id="ytick_15">
     <g id="line2d_29">
      <g>
       <use style="stroke:#000000;stroke-width:0.8;" x="343.740231" xlink:href="#mb2bb99e495" y="34.935564"/>
      </g>
     </g>
     <g id="text_32">
      <!-- 0.40 -->
      <g transform="translate(314.474606 38.734783)scale(0.1 -0.1)">
       <use xlink:href="#DejaVuSans-48"/>
       <use x="63.623047" xlink:href="#DejaVuSans-46"/>
       <use x="95.410156" xlink:href="#DejaVuSans-52"/>
       <use x="159.033203" xlink:href="#DejaVuSans-48"/>
      </g>
     </g>
    </g>
    <g id="text_33">
     <!-- $ p_{eq}(x) $ -->
     <g transform="translate(307.374606 150.29)rotate(-90)scale(0.1 -0.1)">
      <defs>
       <path d="M 49.609375 33.6875 
Q 49.609375 40.875 46.484375 44.671875 
Q 43.359375 48.484375 37.5 48.484375 
Q 33.5 48.484375 29.859375 46.4375 
Q 26.21875 44.390625 23.390625 40.484375 
Q 20.609375 36.625 18.9375 31.15625 
Q 17.28125 25.6875 17.28125 20.3125 
Q 17.28125 13.484375 20.40625 9.796875 
Q 23.53125 6.109375 29.296875 6.109375 
Q 33.546875 6.109375 37.1875 8.109375 
Q 40.828125 10.109375 43.40625 13.921875 
Q 46.1875 17.921875 47.890625 23.34375 
Q 49.609375 28.765625 49.609375 33.6875 
z
M 21.78125 46.390625 
Q 25.390625 51.125 30.296875 53.5625 
Q 35.203125 56 41.21875 56 
Q 49.609375 56 54.25 50.5 
Q 58.890625 45.015625 58.890625 35.109375 
Q 58.890625 27 56 19.65625 
Q 53.125 12.3125 47.703125 6.5 
Q 44.09375 2.640625 39.546875 0.609375 
Q 35.015625 -1.421875 29.984375 -1.421875 
Q 24.171875 -1.421875 20.21875 1 
Q 16.265625 3.421875 14.3125 8.203125 
L 8.6875 -20.796875 
L -0.296875 -20.796875 
L 14.40625 54.6875 
L 23.390625 54.6875 
z
" id="DejaVuSans-Oblique-112"/>
       <path d="M 48.09375 32.234375 
Q 48.25 33.015625 48.3125 33.84375 
Q 48.390625 34.671875 48.390625 35.5 
Q 48.390625 41.453125 44.890625 44.921875 
Q 41.40625 48.390625 35.40625 48.390625 
Q 28.71875 48.390625 23.578125 44.15625 
Q 18.453125 39.9375 15.828125 32.171875 
z
M 55.90625 25.203125 
L 14.109375 25.203125 
Q 13.8125 23.34375 13.71875 22.265625 
Q 13.625 21.1875 13.625 20.40625 
Q 13.625 13.625 17.796875 9.90625 
Q 21.96875 6.203125 29.59375 6.203125 
Q 35.453125 6.203125 40.671875 7.515625 
Q 45.90625 8.84375 50.390625 11.375 
L 48.6875 2.484375 
Q 43.84375 0.53125 38.6875 -0.4375 
Q 33.546875 -1.421875 28.21875 -1.421875 
Q 16.84375 -1.421875 10.71875 4.015625 
Q 4.59375 9.46875 4.59375 19.484375 
Q 4.59375 28.03125 7.640625 35.375 
Q 10.6875 42.71875 16.609375 48.484375 
Q 20.40625 52.09375 25.65625 54.046875 
Q 30.90625 56 36.8125 56 
Q 46.09375 56 51.578125 50.4375 
Q 57.078125 44.875 57.078125 35.5 
Q 57.078125 33.25 56.78125 30.6875 
Q 56.5 28.125 55.90625 25.203125 
z
" id="DejaVuSans-Oblique-101"/>
       <path d="M 41.703125 8.203125 
Q 38.09375 3.46875 33.171875 1.015625 
Q 28.265625 -1.421875 22.3125 -1.421875 
Q 14.015625 -1.421875 9.296875 4.171875 
Q 4.59375 9.765625 4.59375 19.578125 
Q 4.59375 27.484375 7.5 34.859375 
Q 10.40625 42.234375 15.828125 48.09375 
Q 19.34375 51.90625 23.90625 53.953125 
Q 28.46875 56 33.5 56 
Q 39.546875 56 43.453125 53.609375 
Q 47.359375 51.21875 49.125 46.390625 
L 50.6875 54.59375 
L 59.71875 54.59375 
L 45.125 -20.609375 
L 36.078125 -20.609375 
z
M 13.921875 20.90625 
Q 13.921875 13.671875 16.9375 9.890625 
Q 19.96875 6.109375 25.6875 6.109375 
Q 34.1875 6.109375 40.1875 14.234375 
Q 46.1875 22.359375 46.1875 33.984375 
Q 46.1875 41.015625 43.078125 44.75 
Q 39.984375 48.484375 34.1875 48.484375 
Q 29.9375 48.484375 26.3125 46.5 
Q 22.703125 44.53125 20.015625 40.71875 
Q 17.1875 36.71875 15.546875 31.34375 
Q 13.921875 25.984375 13.921875 20.90625 
z
" id="DejaVuSans-Oblique-113"/>
       <path d="M 31 75.875 
Q 24.46875 64.65625 21.28125 53.65625 
Q 18.109375 42.671875 18.109375 31.390625 
Q 18.109375 20.125 21.3125 9.0625 
Q 24.515625 -2 31 -13.1875 
L 23.1875 -13.1875 
Q 15.875 -1.703125 12.234375 9.375 
Q 8.59375 20.453125 8.59375 31.390625 
Q 8.59375 42.28125 12.203125 53.3125 
Q 15.828125 64.359375 23.1875 75.875 
z
" id="DejaVuSans-40"/>
       <path d="M 8.015625 75.875 
L 15.828125 75.875 
Q 23.140625 64.359375 26.78125 53.3125 
Q 30.421875 42.28125 30.421875 31.390625 
Q 30.421875 20.453125 26.78125 9.375 
Q 23.140625 -1.703125 15.828125 -13.1875 
L 8.015625 -13.1875 
Q 14.5 -2 17.703125 9.0625 
Q 20.90625 20.125 20.90625 31.390625 
Q 20.90625 42.671875 17.703125 53.65625 
Q 14.5 64.65625 8.015625 75.875 
z
" id="DejaVuSans-41"/>
      </defs>
      <use transform="translate(0 0.125)" xlink:href="#DejaVuSans-Oblique-112"/>
      <use transform="translate(63.476562 -16.28125)scale(0.7)" xlink:href="#DejaVuSans-Oblique-101"/>
      <use transform="translate(106.542969 -16.28125)scale(0.7)" xlink:href="#DejaVuSans-Oblique-113"/>
      <use transform="translate(153.710938 0.125)" xlink:href="#DejaVuSans-40"/>
      <use transform="translate(192.724609 0.125)" xlink:href="#DejaVuSans-Oblique-120"/>
      <use transform="translate(251.904297 0.125)" xlink:href="#DejaVuSans-41"/>
     </g>
    </g>
   </g>
   <g id="line2d_30">
    <path clip-path="url(#p8d64cf2bb7)" d="M 353.826574 236.012727 
L 428.602957 235.921457 
L 431.754939 235.702899 
L 433.497312 235.409911 
L 434.906921 234.982873 
L 435.778108 234.580423 
L 436.649294 234.022711 
L 438.058903 232.637049 
L 438.93009 231.350207 
L 439.801276 229.598449 
L 441.210885 225.390565 
L 442.082072 221.63817 
L 442.953258 216.733382 
L 444.362867 205.731023 
L 445.234054 196.664096 
L 446.10524 185.651905 
L 447.514849 163.588428 
L 449.257222 130.078704 
L 451.538018 83.358535 
L 452.409204 68.152228 
L 453.818814 51.0716 
L 454.69 46.685992 
L 455.561186 47.621826 
L 456.970796 60.164462 
L 457.841982 73.734072 
L 458.713168 90.529538 
L 461.865151 158.727464 
L 463.27476 183.93432 
L 464.145946 196.440862 
L 465.017133 206.588454 
L 466.426742 218.560315 
L 467.297928 223.693469 
L 468.169115 227.47418 
L 469.578724 231.456596 
L 470.44991 232.980703 
L 471.321097 234.018525 
L 472.730706 235.020476 
L 473.601892 235.37468 
L 474.473079 235.605205 
L 476.753875 235.890347 
L 480.777043 235.999279 
L 504.250527 236.012727 
L 555.553426 236.012727 
L 555.553426 236.012727 
" style="fill:none;stroke:#ff0000;stroke-dasharray:5.55,2.4;stroke-dashoffset:0;stroke-opacity:0.7;stroke-width:1.5;"/>
   </g>
   <g id="line2d_31">
    <path clip-path="url(#p8d64cf2bb7)" d="M 353.826574 236.012727 
L 387.62719 235.921 
L 391.650358 235.689267 
L 393.931154 235.388194 
L 395.673527 235.008417 
L 397.954323 234.208609 
L 398.825509 233.780455 
L 400.235118 232.901752 
L 401.977491 231.423947 
L 403.3871 229.837213 
L 405.129473 227.288677 
L 406.539082 224.675148 
L 408.281455 220.673278 
L 410.562251 214.034068 
L 411.433437 211.068381 
L 413.714233 202.236424 
L 415.995029 192.110503 
L 422.298993 162.76103 
L 424.041366 156.152791 
L 425.450975 151.855892 
L 426.322161 149.761915 
L 427.193348 148.141837 
L 428.602957 146.593309 
L 429.474143 146.326073 
L 430.34533 146.593309 
L 431.754939 148.141837 
L 432.626125 149.761915 
L 433.497312 151.855892 
L 434.906921 156.152791 
L 436.649294 162.76103 
L 438.93009 172.910285 
L 444.362867 198.497705 
L 446.10524 205.783499 
L 448.386036 214.034068 
L 449.257222 216.762391 
L 451.538018 222.785737 
L 452.409204 224.675148 
L 453.818814 227.288677 
L 455.561186 229.837213 
L 456.970796 231.423947 
L 458.713168 232.901752 
L 460.993964 234.208609 
L 461.865151 234.563319 
L 464.145946 235.218385 
L 466.426742 235.59484 
L 469.578724 235.851914 
L 474.473079 235.981461 
L 490.232989 236.012683 
L 555.553426 236.012727 
L 555.553426 236.012727 
" style="fill:none;stroke:#008000;stroke-linecap:square;stroke-opacity:0.7;stroke-width:1.5;"/>
   </g>
   <g id="line2d_32">
    <path clip-path="url(#p8d64cf2bb7)" d="M 353.826574 236.012727 
L 434.906921 235.921365 
L 436.649294 235.678967 
L 438.058903 235.140341 
L 438.93009 234.49346 
L 439.801276 233.444699 
L 441.210885 230.376268 
L 442.082072 227.201375 
L 442.953258 222.64311 
L 444.362867 211.37178 
L 445.234054 201.434354 
L 446.10524 188.915875 
L 447.514849 163.123694 
L 449.257222 123.754416 
L 451.538018 71.048536 
L 452.409204 54.962594 
L 453.818814 38.437308 
L 454.69 35.467273 
L 455.561186 38.437308 
L 456.970796 54.962594 
L 457.841982 71.048536 
L 458.713168 90.124351 
L 461.865151 163.123694 
L 463.27476 188.915875 
L 464.145946 201.434354 
L 465.017133 211.37178 
L 466.426742 222.64311 
L 467.297928 227.201375 
L 468.169115 230.376268 
L 469.578724 233.444699 
L 470.44991 234.49346 
L 471.321097 235.140341 
L 472.730706 235.678967 
L 474.473079 235.921365 
L 479.03467 236.010981 
L 555.553426 236.012727 
L 555.553426 236.012727 
" style="fill:none;stroke:#0000ff;stroke-linecap:square;stroke-opacity:0.3;stroke-width:3;"/>
   </g>
   <g id="line2d_33">
    <path clip-path="url(#p8d64cf2bb7)" d="M 353.826574 246.04 
L 353.826574 25.44 
" style="fill:none;stroke:#808080;stroke-linecap:square;stroke-opacity:0.2;stroke-width:1.5;"/>
   </g>
   <g id="line2d_34">
    <path clip-path="url(#p8d64cf2bb7)" d="M 379.04243 246.04 
L 379.04243 25.44 
" style="fill:none;stroke:#808080;stroke-linecap:square;stroke-opacity:0.2;stroke-width:1.5;"/>
   </g>
   <g id="line2d_35">
    <path clip-path="url(#p8d64cf2bb7)" d="M 404.258287 246.04 
L 404.258287 25.44 
" style="fill:none;stroke:#808080;stroke-linecap:square;stroke-opacity:0.2;stroke-width:1.5;"/>
   </g>
   <g id="line2d_36">
    <path clip-path="url(#p8d64cf2bb7)" d="M 429.474143 246.04 
L 429.474143 25.44 
" style="fill:none;stroke:#808080;stroke-linecap:square;stroke-opacity:0.2;stroke-width:1.5;"/>
   </g>
   <g id="line2d_37">
    <path clip-path="url(#p8d64cf2bb7)" d="M 454.69 246.04 
L 454.69 25.44 
" style="fill:none;stroke:#808080;stroke-linecap:square;stroke-opacity:0.2;stroke-width:1.5;"/>
   </g>
   <g id="line2d_38">
    <path clip-path="url(#p8d64cf2bb7)" d="M 479.905857 246.04 
L 479.905857 25.44 
" style="fill:none;stroke:#808080;stroke-linecap:square;stroke-opacity:0.2;stroke-width:1.5;"/>
   </g>
   <g id="line2d_39">
    <path clip-path="url(#p8d64cf2bb7)" d="M 505.121713 246.04 
L 505.121713 25.44 
" style="fill:none;stroke:#808080;stroke-linecap:square;stroke-opacity:0.2;stroke-width:1.5;"/>
   </g>
   <g id="line2d_40">
    <path clip-path="url(#p8d64cf2bb7)" d="M 530.33757 246.04 
L 530.33757 25.44 
" style="fill:none;stroke:#808080;stroke-linecap:square;stroke-opacity:0.2;stroke-width:1.5;"/>
   </g>
   <g id="line2d_41">
    <path clip-path="url(#p8d64cf2bb7)" d="M 555.553426 246.04 
L 555.553426 25.44 
" style="fill:none;stroke:#808080;stroke-linecap:square;stroke-opacity:0.2;stroke-width:1.5;"/>
   </g>
   <g id="patch_9">
    <path d="M 343.740231 246.04 
L 343.740231 25.44 
" style="fill:none;stroke:#000000;stroke-linecap:square;stroke-linejoin:miter;stroke-width:0.8;"/>
   </g>
   <g id="patch_10">
    <path d="M 565.639769 246.04 
L 565.639769 25.44 
" style="fill:none;stroke:#000000;stroke-linecap:square;stroke-linejoin:miter;stroke-width:0.8;"/>
   </g>
   <g id="patch_11">
    <path d="M 343.740231 246.04 
L 565.639769 246.04 
" style="fill:none;stroke:#000000;stroke-linecap:square;stroke-linejoin:miter;stroke-width:0.8;"/>
   </g>
   <g id="patch_12">
    <path d="M 343.740231 25.44 
L 565.639769 25.44 
" style="fill:none;stroke:#000000;stroke-linecap:square;stroke-linejoin:miter;stroke-width:0.8;"/>
   </g>
   <g id="legend_2">
    <g id="patch_13">
     <path d="M 496.639769 77.538438 
L 558.639769 77.538438 
Q 560.639769 77.538438 560.639769 75.538438 
L 560.639769 32.44 
Q 560.639769 30.44 558.639769 30.44 
L 496.639769 30.44 
Q 494.639769 30.44 494.639769 32.44 
L 494.639769 75.538438 
Q 494.639769 77.538438 496.639769 77.538438 
z
" style="fill:#ffffff;opacity:0.8;stroke:#cccccc;stroke-linejoin:miter;"/>
    </g>
    <g id="line2d_42">
     <path d="M 498.639769 38.538438 
L 518.639769 38.538438 
" style="fill:none;stroke:#ff0000;stroke-dasharray:5.55,2.4;stroke-dashoffset:0;stroke-opacity:0.7;stroke-width:1.5;"/>
    </g>
    <g id="line2d_43"/>
    <g id="text_34">
     <!-- $p_{EM}$ -->
     <g transform="translate(526.639769 42.038438)scale(0.1 -0.1)">
      <defs>
       <path d="M 16.890625 72.90625 
L 62.984375 72.90625 
L 61.375 64.59375 
L 25.09375 64.59375 
L 20.90625 43.015625 
L 55.71875 43.015625 
L 54.109375 34.71875 
L 19.28125 34.71875 
L 14.203125 8.296875 
L 51.3125 8.296875 
L 49.703125 0 
L 2.6875 0 
z
" id="DejaVuSans-Oblique-69"/>
       <path d="M 16.890625 72.90625 
L 31.6875 72.90625 
L 40.1875 23.78125 
L 68.40625 72.90625 
L 83.59375 72.90625 
L 69.390625 0 
L 59.8125 0 
L 72.21875 63.921875 
L 43.609375 14.015625 
L 33.984375 14.015625 
L 24.703125 64.109375 
L 12.3125 0 
L 2.6875 0 
z
" id="DejaVuSans-Oblique-77"/>
      </defs>
      <use xlink:href="#DejaVuSans-Oblique-112"/>
      <use transform="translate(63.476562 -16.40625)scale(0.7)" xlink:href="#DejaVuSans-Oblique-69"/>
      <use transform="translate(107.705078 -16.40625)scale(0.7)" xlink:href="#DejaVuSans-Oblique-77"/>
     </g>
    </g>
    <g id="line2d_44">
     <path d="M 498.639769 53.238438 
L 518.639769 53.238438 
" style="fill:none;stroke:#008000;stroke-linecap:square;stroke-opacity:0.7;stroke-width:1.5;"/>
    </g>
    <g id="line2d_45"/>
    <g id="text_35">
     <!-- $ p_0(x) $ -->
     <g transform="translate(526.639769 56.738438)scale(0.1 -0.1)">
      <use transform="translate(0 0.125)" xlink:href="#DejaVuSans-Oblique-112"/>
      <use transform="translate(63.476562 -16.28125)scale(0.7)" xlink:href="#DejaVuSans-48"/>
      <use transform="translate(110.74707 0.125)" xlink:href="#DejaVuSans-40"/>
      <use transform="translate(149.760742 0.125)" xlink:href="#DejaVuSans-Oblique-120"/>
      <use transform="translate(208.94043 0.125)" xlink:href="#DejaVuSans-41"/>
     </g>
    </g>
    <g id="line2d_46">
     <path d="M 498.639769 67.938438 
L 518.639769 67.938438 
" style="fill:none;stroke:#0000ff;stroke-linecap:square;stroke-opacity:0.3;stroke-width:3;"/>
    </g>
    <g id="line2d_47"/>
    <g id="text_36">
     <!-- $ p_{ref}(x) $ -->
     <g transform="translate(526.639769 71.438438)scale(0.1 -0.1)">
      <defs>
       <path d="M 44.578125 46.390625 
Q 43.21875 47.125 41.453125 47.515625 
Q 39.703125 47.90625 37.703125 47.90625 
Q 30.515625 47.90625 25.140625 42.453125 
Q 19.78125 37.015625 18.015625 27.875 
L 12.5 0 
L 3.515625 0 
L 14.203125 54.6875 
L 23.1875 54.6875 
L 21.484375 46.1875 
Q 25.046875 50.921875 30 53.453125 
Q 34.96875 56 40.578125 56 
Q 42.046875 56 43.453125 55.828125 
Q 44.875 55.671875 46.296875 55.28125 
z
" id="DejaVuSans-Oblique-114"/>
       <path d="M 47.796875 75.984375 
L 46.390625 68.5 
L 37.796875 68.5 
Q 32.90625 68.5 30.6875 66.578125 
Q 28.46875 64.65625 27.390625 59.515625 
L 26.421875 54.6875 
L 41.21875 54.6875 
L 39.890625 47.703125 
L 25.09375 47.703125 
L 15.828125 0 
L 6.78125 0 
L 16.109375 47.703125 
L 7.515625 47.703125 
L 8.796875 54.6875 
L 17.390625 54.6875 
L 18.109375 58.5 
Q 19.96875 68.171875 24.625 72.078125 
Q 29.296875 75.984375 39.3125 75.984375 
z
" id="DejaVuSans-Oblique-102"/>
      </defs>
      <use transform="translate(0 0.125)" xlink:href="#DejaVuSans-Oblique-112"/>
      <use transform="translate(63.476562 -16.28125)scale(0.7)" xlink:href="#DejaVuSans-Oblique-114"/>
      <use transform="translate(92.255859 -16.28125)scale(0.7)" xlink:href="#DejaVuSans-Oblique-101"/>
      <use transform="translate(135.322266 -16.28125)scale(0.7)" xlink:href="#DejaVuSans-Oblique-102"/>
      <use transform="translate(162.700195 0.125)" xlink:href="#DejaVuSans-40"/>
      <use transform="translate(201.713867 0.125)" xlink:href="#DejaVuSans-Oblique-120"/>
      <use transform="translate(260.893555 0.125)" xlink:href="#DejaVuSans-41"/>
     </g>
    </g>
   </g>
  </g>
  <g id="axes_3">
   <g id="patch_14">
    <path d="M 631.300462 246.04 
L 853.2 246.04 
L 853.2 25.44 
L 631.300462 25.44 
z
" style="fill:#ffffff;"/>
   </g>
   <g id="patch_15">
    <path clip-path="url(#pe9b4ea1054)" d="M 641.386805 246.04 
L 699.023048 246.04 
L 699.023048 35.944762 
L 641.386805 35.944762 
z
" style="fill:#008000;opacity:0.7;"/>
   </g>
   <g id="patch_16">
    <path clip-path="url(#pe9b4ea1054)" d="M 713.432109 246.04 
L 771.068353 246.04 
L 771.068353 35.944762 
L 713.432109 35.944762 
z
" style="fill:#ff0000;opacity:0.7;"/>
   </g>
   <g id="patch_17">
    <path clip-path="url(#pe9b4ea1054)" d="M 785.477414 246.04 
L 843.113657 246.04 
L 843.113657 235.860886 
L 785.477414 235.860886 
z
" style="fill:#0000ff;opacity:0.3;"/>
   </g>
   <g id="matplotlib.axis_5">
    <g id="xtick_12">
     <g id="line2d_48">
      <g>
       <use style="stroke:#000000;stroke-width:0.8;" x="670.204926" xlink:href="#mce23e08c58" y="246.04"/>
      </g>
     </g>
     <g id="text_37">
      <!-- $D_0$ -->
      <g transform="translate(663.954926 260.638438)scale(0.1 -0.1)">
       <defs>
        <path d="M 16.890625 72.90625 
L 38.09375 72.90625 
Q 54.984375 72.90625 63.59375 65.75 
Q 72.21875 58.59375 72.21875 44.484375 
Q 72.21875 35.15625 68.9375 26.53125 
Q 65.671875 17.921875 59.90625 12.015625 
Q 54.109375 5.953125 45.171875 2.96875 
Q 36.234375 0 24.03125 0 
L 2.6875 0 
z
M 25.203125 64.796875 
L 14.203125 8.109375 
L 27.09375 8.109375 
Q 43.65625 8.109375 52.734375 17.625 
Q 61.8125 27.15625 61.8125 44.484375 
Q 61.8125 54.984375 55.953125 59.890625 
Q 50.09375 64.796875 37.59375 64.796875 
z
" id="DejaVuSans-Oblique-68"/>
       </defs>
       <use transform="translate(0 0.09375)" xlink:href="#DejaVuSans-Oblique-68"/>
       <use transform="translate(77.001953 -16.3125)scale(0.7)" xlink:href="#DejaVuSans-48"/>
      </g>
     </g>
    </g>
    <g id="xtick_13">
     <g id="line2d_49">
      <g>
       <use style="stroke:#000000;stroke-width:0.8;" x="742.250231" xlink:href="#mce23e08c58" y="246.04"/>
      </g>
     </g>
     <g id="text_38">
      <!-- $D_{EM}$ -->
      <g transform="translate(733.000231 260.638438)scale(0.1 -0.1)">
       <use transform="translate(0 0.09375)" xlink:href="#DejaVuSans-Oblique-68"/>
       <use transform="translate(77.001953 -16.3125)scale(0.7)" xlink:href="#DejaVuSans-Oblique-69"/>
       <use transform="translate(121.230469 -16.3125)scale(0.7)" xlink:href="#DejaVuSans-Oblique-77"/>
      </g>
     </g>
    </g>
    <g id="xtick_14">
     <g id="line2d_50">
      <g>
       <use style="stroke:#000000;stroke-width:0.8;" x="814.295536" xlink:href="#mce23e08c58" y="246.04"/>
      </g>
     </g>
     <g id="text_39">
      <!-- $D_{ref}$ -->
      <g transform="translate(805.445536 260.638438)scale(0.1 -0.1)">
       <use transform="translate(0 0.09375)" xlink:href="#DejaVuSans-Oblique-68"/>
       <use transform="translate(77.001953 -16.3125)scale(0.7)" xlink:href="#DejaVuSans-Oblique-114"/>
       <use transform="translate(105.78125 -16.3125)scale(0.7)" xlink:href="#DejaVuSans-Oblique-101"/>
       <use transform="translate(148.847656 -16.3125)scale(0.7)" xlink:href="#DejaVuSans-Oblique-102"/>
      </g>
     </g>
    </g>
   </g>
   <g id="matplotlib.axis_6">
    <g id="ytick_16">
     <g id="line2d_51">
      <g>
       <use style="stroke:#000000;stroke-width:0.8;" x="631.300462" xlink:href="#mb2bb99e495" y="246.04"/>
      </g>
     </g>
     <g id="text_40">
      <!-- 0.0 -->
      <g transform="translate(608.397337 249.839219)scale(0.1 -0.1)">
       <use xlink:href="#DejaVuSans-48"/>
       <use x="63.623047" xlink:href="#DejaVuSans-46"/>
       <use x="95.410156" xlink:href="#DejaVuSans-48"/>
      </g>
     </g>
    </g>
    <g id="ytick_17">
     <g id="line2d_52">
      <g>
       <use style="stroke:#000000;stroke-width:0.8;" x="631.300462" xlink:href="#mb2bb99e495" y="204.020952"/>
      </g>
     </g>
     <g id="text_41">
      <!-- 0.2 -->
      <g transform="translate(608.397337 207.820171)scale(0.1 -0.1)">
       <use xlink:href="#DejaVuSans-48"/>
       <use x="63.623047" xlink:href="#DejaVuSans-46"/>
       <use x="95.410156" xlink:href="#DejaVuSans-50"/>
      </g>
     </g>
    </g>
    <g id="ytick_18">
     <g id="line2d_53">
      <g>
       <use style="stroke:#000000;stroke-width:0.8;" x="631.300462" xlink:href="#mb2bb99e495" y="162.001905"/>
      </g>
     </g>
     <g id="text_42">
      <!-- 0.4 -->
      <g transform="translate(608.397337 165.801124)scale(0.1 -0.1)">
       <use xlink:href="#DejaVuSans-48"/>
       <use x="63.623047" xlink:href="#DejaVuSans-46"/>
       <use x="95.410156" xlink:href="#DejaVuSans-52"/>
      </g>
     </g>
    </g>
    <g id="ytick_19">
     <g id="line2d_54">
      <g>
       <use style="stroke:#000000;stroke-width:0.8;" x="631.300462" xlink:href="#mb2bb99e495" y="119.982857"/>
      </g>
     </g>
     <g id="text_43">
      <!-- 0.6 -->
      <g transform="translate(608.397337 123.782076)scale(0.1 -0.1)">
       <use xlink:href="#DejaVuSans-48"/>
       <use x="63.623047" xlink:href="#DejaVuSans-46"/>
       <use x="95.410156" xlink:href="#DejaVuSans-54"/>
      </g>
     </g>
    </g>
    <g id="ytick_20">
     <g id="line2d_55">
      <g>
       <use style="stroke:#000000;stroke-width:0.8;" x="631.300462" xlink:href="#mb2bb99e495" y="77.96381"/>
      </g>
     </g>
     <g id="text_44">
      <!-- 0.8 -->
      <g transform="translate(608.397337 81.763028)scale(0.1 -0.1)">
       <use xlink:href="#DejaVuSans-48"/>
       <use x="63.623047" xlink:href="#DejaVuSans-46"/>
       <use x="95.410156" xlink:href="#DejaVuSans-56"/>
      </g>
     </g>
    </g>
    <g id="ytick_21">
     <g id="line2d_56">
      <g>
       <use style="stroke:#000000;stroke-width:0.8;" x="631.300462" xlink:href="#mb2bb99e495" y="35.944762"/>
      </g>
     </g>
     <g id="text_45">
      <!-- 1.0 -->
      <g transform="translate(608.397337 39.743981)scale(0.1 -0.1)">
       <use xlink:href="#DejaVuSans-49"/>
       <use x="63.623047" xlink:href="#DejaVuSans-46"/>
       <use x="95.410156" xlink:href="#DejaVuSans-48"/>
      </g>
     </g>
    </g>
    <g id="text_46">
     <!-- 1e11 -->
     <g transform="translate(631.300462 22.44)scale(0.1 -0.1)">
      <use xlink:href="#DejaVuSans-49"/>
      <use x="63.623047" xlink:href="#DejaVuSans-101"/>
      <use x="125.146484" xlink:href="#DejaVuSans-49"/>
      <use x="188.769531" xlink:href="#DejaVuSans-49"/>
     </g>
    </g>
   </g>
   <g id="patch_18">
    <path d="M 631.300462 246.04 
L 631.300462 25.44 
" style="fill:none;stroke:#000000;stroke-linecap:square;stroke-linejoin:miter;stroke-width:0.8;"/>
   </g>
   <g id="patch_19">
    <path d="M 853.2 246.04 
L 853.2 25.44 
" style="fill:none;stroke:#000000;stroke-linecap:square;stroke-linejoin:miter;stroke-width:0.8;"/>
   </g>
   <g id="patch_20">
    <path d="M 631.300462 246.04 
L 853.2 246.04 
" style="fill:none;stroke:#000000;stroke-linecap:square;stroke-linejoin:miter;stroke-width:0.8;"/>
   </g>
   <g id="patch_21">
    <path d="M 631.300462 25.44 
L 853.2 25.44 
" style="fill:none;stroke:#000000;stroke-linecap:square;stroke-linejoin:miter;stroke-width:0.8;"/>
   </g>
   <g id="legend_3">
    <g id="patch_22">
     <path d="M 758.148437 77.474375 
L 846.2 77.474375 
Q 848.2 77.474375 848.2 75.474375 
L 848.2 32.44 
Q 848.2 30.44 846.2 30.44 
L 758.148437 30.44 
Q 756.148437 30.44 756.148437 32.44 
L 756.148437 75.474375 
Q 756.148437 77.474375 758.148437 77.474375 
z
" style="fill:#ffffff;opacity:0.8;stroke:#cccccc;stroke-linejoin:miter;"/>
    </g>
    <g id="patch_23">
     <path d="M 760.148437 42.038438 
L 780.148437 42.038438 
L 780.148437 35.038438 
L 760.148437 35.038438 
z
" style="fill:#008000;opacity:0.7;"/>
    </g>
    <g id="text_47">
     <!-- 1.000E+11 -->
     <g transform="translate(788.148437 42.038438)scale(0.1 -0.1)">
      <defs>
       <path d="M 46 62.703125 
L 46 35.5 
L 73.1875 35.5 
L 73.1875 27.203125 
L 46 27.203125 
L 46 0 
L 37.796875 0 
L 37.796875 27.203125 
L 10.59375 27.203125 
L 10.59375 35.5 
L 37.796875 35.5 
L 37.796875 62.703125 
z
" id="DejaVuSans-43"/>
      </defs>
      <use xlink:href="#DejaVuSans-49"/>
      <use x="63.623047" xlink:href="#DejaVuSans-46"/>
      <use x="95.410156" xlink:href="#DejaVuSans-48"/>
      <use x="159.033203" xlink:href="#DejaVuSans-48"/>
      <use x="222.65625" xlink:href="#DejaVuSans-48"/>
      <use x="286.279297" xlink:href="#DejaVuSans-69"/>
      <use x="349.462891" xlink:href="#DejaVuSans-43"/>
      <use x="433.251953" xlink:href="#DejaVuSans-49"/>
      <use x="496.875" xlink:href="#DejaVuSans-49"/>
     </g>
    </g>
    <g id="patch_24">
     <path d="M 760.148437 56.716563 
L 780.148437 56.716563 
L 780.148437 49.716563 
L 760.148437 49.716563 
z
" style="fill:#ff0000;opacity:0.7;"/>
    </g>
    <g id="text_48">
     <!-- 1.000E+11 -->
     <g transform="translate(788.148437 56.716563)scale(0.1 -0.1)">
      <use xlink:href="#DejaVuSans-49"/>
      <use x="63.623047" xlink:href="#DejaVuSans-46"/>
      <use x="95.410156" xlink:href="#DejaVuSans-48"/>
      <use x="159.033203" xlink:href="#DejaVuSans-48"/>
      <use x="222.65625" xlink:href="#DejaVuSans-48"/>
      <use x="286.279297" xlink:href="#DejaVuSans-69"/>
      <use x="349.462891" xlink:href="#DejaVuSans-43"/>
      <use x="433.251953" xlink:href="#DejaVuSans-49"/>
      <use x="496.875" xlink:href="#DejaVuSans-49"/>
     </g>
    </g>
    <g id="patch_25">
     <path d="M 760.148437 71.394688 
L 780.148437 71.394688 
L 780.148437 64.394688 
L 760.148437 64.394688 
z
" style="fill:#0000ff;opacity:0.3;"/>
    </g>
    <g id="text_49">
     <!-- 4.845E+09 -->
     <g transform="translate(788.148437 71.394688)scale(0.1 -0.1)">
      <defs>
       <path d="M 10.984375 1.515625 
L 10.984375 10.5 
Q 14.703125 8.734375 18.5 7.8125 
Q 22.3125 6.890625 25.984375 6.890625 
Q 35.75 6.890625 40.890625 13.453125 
Q 46.046875 20.015625 46.78125 33.40625 
Q 43.953125 29.203125 39.59375 26.953125 
Q 35.25 24.703125 29.984375 24.703125 
Q 19.046875 24.703125 12.671875 31.3125 
Q 6.296875 37.9375 6.296875 49.421875 
Q 6.296875 60.640625 12.9375 67.421875 
Q 19.578125 74.21875 30.609375 74.21875 
Q 43.265625 74.21875 49.921875 64.515625 
Q 56.59375 54.828125 56.59375 36.375 
Q 56.59375 19.140625 48.40625 8.859375 
Q 40.234375 -1.421875 26.421875 -1.421875 
Q 22.703125 -1.421875 18.890625 -0.6875 
Q 15.09375 0.046875 10.984375 1.515625 
z
M 30.609375 32.421875 
Q 37.25 32.421875 41.125 36.953125 
Q 45.015625 41.5 45.015625 49.421875 
Q 45.015625 57.28125 41.125 61.84375 
Q 37.25 66.40625 30.609375 66.40625 
Q 23.96875 66.40625 20.09375 61.84375 
Q 16.21875 57.28125 16.21875 49.421875 
Q 16.21875 41.5 20.09375 36.953125 
Q 23.96875 32.421875 30.609375 32.421875 
z
" id="DejaVuSans-57"/>
      </defs>
      <use xlink:href="#DejaVuSans-52"/>
      <use x="63.623047" xlink:href="#DejaVuSans-46"/>
      <use x="95.410156" xlink:href="#DejaVuSans-56"/>
      <use x="159.033203" xlink:href="#DejaVuSans-52"/>
      <use x="222.65625" xlink:href="#DejaVuSans-53"/>
      <use x="286.279297" xlink:href="#DejaVuSans-69"/>
      <use x="349.462891" xlink:href="#DejaVuSans-43"/>
      <use x="433.251953" xlink:href="#DejaVuSans-48"/>
      <use x="496.875" xlink:href="#DejaVuSans-57"/>
     </g>
    </g>
   </g>
  </g>
 </g>
 <defs>
  <clipPath id="p9759e6f1ec">
   <rect height="220.6" width="221.899538" x="56.18" y="25.44"/>
  </clipPath>
  <clipPath id="p8d64cf2bb7">
   <rect height="220.6" width="221.899538" x="343.740231" y="25.44"/>
  </clipPath>
  <clipPath id="pe9b4ea1054">
   <rect height="220.6" width="221.899538" x="631.300462" y="25.44"/>
  </clipPath>
 </defs>
</svg>
